<svg width="852" height="632" viewBox="0 0 852 632" fill="none" xmlns="http://www.w3.org/2000/svg">
<g clip-path="url(#clip0_237_3382)">
<rect width="852" height="632" fill="#00BCE7"/>
<path d="M86.36 217V182.44H100.952C101.288 182.44 101.736 182.456 102.296 182.488C102.872 182.504 103.384 182.552 103.832 182.632C105.896 182.952 107.584 183.632 108.896 184.672C110.224 185.712 111.2 187.024 111.824 188.608C112.448 190.176 112.76 191.928 112.76 193.864C112.76 195.8 112.44 197.56 111.8 199.144C111.176 200.712 110.2 202.016 108.872 203.056C107.56 204.096 105.88 204.776 103.832 205.096C103.384 205.16 102.872 205.208 102.296 205.24C101.72 205.272 101.272 205.288 100.952 205.288H92.888V217H86.36ZM92.888 199.192H100.664C101 199.192 101.368 199.176 101.768 199.144C102.168 199.112 102.536 199.048 102.872 198.952C103.752 198.712 104.432 198.312 104.912 197.752C105.392 197.176 105.72 196.544 105.896 195.856C106.088 195.152 106.184 194.488 106.184 193.864C106.184 193.24 106.088 192.584 105.896 191.896C105.72 191.192 105.392 190.56 104.912 190C104.432 189.424 103.752 189.016 102.872 188.776C102.536 188.68 102.168 188.616 101.768 188.584C101.368 188.552 101 188.536 100.664 188.536H92.888V199.192ZM117.579 217V191.08H123.339V197.416L122.715 196.6C123.051 195.704 123.499 194.888 124.059 194.152C124.619 193.416 125.307 192.808 126.123 192.328C126.747 191.944 127.427 191.648 128.163 191.44C128.899 191.216 129.659 191.08 130.443 191.032C131.227 190.968 132.011 190.984 132.795 191.08V197.176C132.075 196.952 131.235 196.88 130.275 196.96C129.331 197.024 128.475 197.24 127.707 197.608C126.939 197.96 126.291 198.432 125.763 199.024C125.235 199.6 124.835 200.288 124.563 201.088C124.291 201.872 124.155 202.76 124.155 203.752V217H117.579ZM148.555 217.72C145.947 217.72 143.659 217.136 141.691 215.968C139.723 214.8 138.187 213.192 137.083 211.144C135.995 209.08 135.451 206.712 135.451 204.04C135.451 201.336 136.011 198.96 137.131 196.912C138.251 194.848 139.795 193.24 141.763 192.088C143.731 190.936 145.995 190.36 148.555 190.36C151.163 190.36 153.451 190.944 155.419 192.112C157.403 193.28 158.947 194.896 160.051 196.96C161.155 199.008 161.707 201.368 161.707 204.04C161.707 206.728 161.147 209.104 160.027 211.168C158.923 213.216 157.379 214.824 155.395 215.992C153.427 217.144 151.147 217.72 148.555 217.72ZM148.555 211.624C150.651 211.624 152.211 210.92 153.235 209.512C154.275 208.088 154.795 206.264 154.795 204.04C154.795 201.736 154.267 199.896 153.211 198.52C152.171 197.144 150.619 196.456 148.555 196.456C147.131 196.456 145.963 196.776 145.051 197.416C144.139 198.056 143.459 198.944 143.011 200.08C142.579 201.216 142.363 202.536 142.363 204.04C142.363 206.36 142.883 208.208 143.923 209.584C144.979 210.944 146.523 211.624 148.555 211.624ZM169.36 228.52L174.352 214.792L174.448 218.824L163.168 191.08H169.936L177.52 210.712H175.984L183.52 191.08H190.048L175.408 228.52H169.36ZM204.533 217.72C201.877 217.72 199.533 217.152 197.501 216.016C195.485 214.864 193.901 213.288 192.749 211.288C191.613 209.272 191.045 206.968 191.045 204.376C191.045 201.544 191.605 199.08 192.725 196.984C193.845 194.888 195.389 193.264 197.357 192.112C199.325 190.944 201.589 190.36 204.149 190.36C206.869 190.36 209.181 191 211.085 192.28C212.989 193.56 214.397 195.36 215.309 197.68C216.221 200 216.541 202.728 216.269 205.864H209.813V203.464C209.813 200.824 209.389 198.928 208.541 197.776C207.709 196.608 206.341 196.024 204.437 196.024C202.213 196.024 200.573 196.704 199.517 198.064C198.477 199.408 197.957 201.4 197.957 204.04C197.957 206.456 198.477 208.328 199.517 209.656C200.573 210.968 202.117 211.624 204.149 211.624C205.429 211.624 206.525 211.344 207.437 210.784C208.349 210.224 209.045 209.416 209.525 208.36L216.053 210.232C215.077 212.6 213.533 214.44 211.421 215.752C209.325 217.064 207.029 217.72 204.533 217.72ZM195.941 205.864V201.016H213.125V205.864H195.941ZM233.112 217.72C230.424 217.72 228.12 217.12 226.2 215.92C224.28 214.72 222.808 213.088 221.784 211.024C220.76 208.96 220.248 206.632 220.248 204.04C220.248 201.416 220.776 199.072 221.832 197.008C222.904 194.944 224.408 193.32 226.344 192.136C228.28 190.952 230.568 190.36 233.208 190.36C236.264 190.36 238.824 191.136 240.888 192.688C242.968 194.224 244.296 196.328 244.872 199L238.344 200.728C237.96 199.384 237.288 198.336 236.328 197.584C235.384 196.832 234.312 196.456 233.112 196.456C231.736 196.456 230.608 196.792 229.728 197.464C228.848 198.12 228.2 199.024 227.784 200.176C227.368 201.312 227.16 202.6 227.16 204.04C227.16 206.296 227.656 208.128 228.648 209.536C229.656 210.928 231.144 211.624 233.112 211.624C234.584 211.624 235.704 211.288 236.472 210.616C237.24 209.944 237.816 208.984 238.2 207.736L244.872 209.128C244.136 211.88 242.744 214 240.696 215.488C238.648 216.976 236.12 217.72 233.112 217.72ZM265.225 217C263.433 217.336 261.673 217.48 259.945 217.432C258.233 217.4 256.697 217.104 255.337 216.544C253.993 215.968 252.969 215.048 252.265 213.784C251.625 212.6 251.289 211.4 251.257 210.184C251.225 208.952 251.209 207.56 251.209 206.008V183.88H257.737V205.624C257.737 206.632 257.745 207.544 257.761 208.36C257.793 209.16 257.961 209.8 258.265 210.28C258.841 211.192 259.761 211.688 261.025 211.768C262.289 211.848 263.689 211.784 265.225 211.576V217ZM246.793 196.12V191.08H265.225V196.12H246.793ZM281.258 217.72C278.65 217.72 276.362 217.136 274.394 215.968C272.426 214.8 270.89 213.192 269.786 211.144C268.698 209.08 268.154 206.712 268.154 204.04C268.154 201.336 268.714 198.96 269.834 196.912C270.954 194.848 272.498 193.24 274.466 192.088C276.434 190.936 278.698 190.36 281.258 190.36C283.866 190.36 286.154 190.944 288.122 192.112C290.106 193.28 291.65 194.896 292.754 196.96C293.858 199.008 294.41 201.368 294.41 204.04C294.41 206.728 293.85 209.104 292.73 211.168C291.626 213.216 290.082 214.824 288.098 215.992C286.13 217.144 283.85 217.72 281.258 217.72ZM281.258 211.624C283.354 211.624 284.914 210.92 285.938 209.512C286.978 208.088 287.498 206.264 287.498 204.04C287.498 201.736 286.97 199.896 285.914 198.52C284.874 197.144 283.322 196.456 281.258 196.456C279.834 196.456 278.666 196.776 277.754 197.416C276.842 198.056 276.162 198.944 275.714 200.08C275.282 201.216 275.066 202.536 275.066 204.04C275.066 206.36 275.586 208.208 276.626 209.584C277.682 210.944 279.226 211.624 281.258 211.624ZM83.96 275L94.52 240.44H104.264L114.824 275H108.104L98.696 244.52H99.944L90.68 275H83.96ZM90.296 267.8V261.704H108.536V267.8H90.296ZM131.244 275.72C128.684 275.72 126.372 275.272 124.308 274.376C122.26 273.464 120.572 272.168 119.244 270.488C117.932 268.792 117.1 266.776 116.748 264.44L123.564 263.432C124.044 265.416 125.036 266.944 126.54 268.016C128.044 269.088 129.756 269.624 131.676 269.624C132.748 269.624 133.788 269.456 134.796 269.12C135.804 268.784 136.628 268.288 137.268 267.632C137.924 266.976 138.252 266.168 138.252 265.208C138.252 264.856 138.196 264.52 138.084 264.2C137.988 263.864 137.82 263.552 137.58 263.264C137.34 262.976 136.996 262.704 136.548 262.448C136.116 262.192 135.564 261.96 134.892 261.752L125.916 259.112C125.244 258.92 124.46 258.648 123.564 258.296C122.684 257.944 121.828 257.44 120.996 256.784C120.164 256.128 119.468 255.264 118.908 254.192C118.364 253.104 118.092 251.736 118.092 250.088C118.092 247.768 118.676 245.84 119.844 244.304C121.012 242.768 122.572 241.624 124.524 240.872C126.476 240.12 128.636 239.752 131.004 239.768C133.388 239.8 135.516 240.208 137.388 240.992C139.26 241.776 140.828 242.92 142.092 244.424C143.356 245.912 144.268 247.736 144.828 249.896L137.772 251.096C137.516 249.976 137.044 249.032 136.356 248.264C135.668 247.496 134.844 246.912 133.884 246.512C132.94 246.112 131.948 245.896 130.908 245.864C129.884 245.832 128.916 245.976 128.004 246.296C127.108 246.6 126.372 247.048 125.796 247.64C125.236 248.232 124.956 248.936 124.956 249.752C124.956 250.504 125.188 251.12 125.652 251.6C126.116 252.064 126.7 252.44 127.404 252.728C128.108 253.016 128.828 253.256 129.564 253.448L135.564 255.08C136.46 255.32 137.452 255.64 138.54 256.04C139.628 256.424 140.668 256.968 141.66 257.672C142.668 258.36 143.492 259.272 144.132 260.408C144.788 261.544 145.116 262.984 145.116 264.728C145.116 266.584 144.724 268.208 143.94 269.6C143.172 270.976 142.132 272.12 140.82 273.032C139.508 273.928 138.02 274.6 136.356 275.048C134.708 275.496 133.004 275.72 131.244 275.72ZM147.991 275L158.551 240.44H168.295L178.855 275H172.135L162.727 244.52H163.975L154.711 275H147.991ZM154.327 267.8V261.704H172.567V267.8H154.327ZM187.222 275L176.662 240.44H183.382L192.022 268.856L200.806 240.44H207.526L196.966 275H187.222ZM210.684 245.48V239.72H217.212V245.48H210.684ZM210.684 275V249.08H217.212V275H210.684ZM224.407 275V249.08H230.167V255.416L229.543 254.6C229.879 253.704 230.327 252.888 230.887 252.152C231.447 251.416 232.135 250.808 232.951 250.328C233.575 249.944 234.255 249.648 234.991 249.44C235.727 249.216 236.487 249.08 237.271 249.032C238.055 248.968 238.839 248.984 239.623 249.08V255.176C238.903 254.952 238.063 254.88 237.103 254.96C236.159 255.024 235.303 255.24 234.535 255.608C233.767 255.96 233.119 256.432 232.591 257.024C232.063 257.6 231.663 258.288 231.391 259.088C231.119 259.872 230.983 260.76 230.983 261.752V275H224.407ZM259.74 275C257.948 275.336 256.188 275.48 254.46 275.432C252.748 275.4 251.212 275.104 249.852 274.544C248.508 273.968 247.484 273.048 246.78 271.784C246.14 270.6 245.804 269.4 245.772 268.184C245.74 266.952 245.724 265.56 245.724 264.008V241.88H252.252V263.624C252.252 264.632 252.26 265.544 252.276 266.36C252.308 267.16 252.476 267.8 252.78 268.28C253.356 269.192 254.276 269.688 255.54 269.768C256.804 269.848 258.204 269.784 259.74 269.576V275ZM241.308 254.12V249.08H259.74V254.12H241.308ZM275.164 275.768C273.132 275.768 271.476 275.424 270.196 274.736C268.916 274.048 267.916 273.176 267.196 272.12C266.492 271.064 265.988 269.968 265.684 268.832C265.38 267.68 265.196 266.632 265.132 265.688C265.068 264.744 265.036 264.056 265.036 263.624V249.08H271.66V261.32C271.66 261.912 271.692 262.672 271.756 263.6C271.82 264.512 272.02 265.432 272.356 266.36C272.692 267.288 273.236 268.064 273.988 268.688C274.756 269.312 275.836 269.624 277.228 269.624C277.788 269.624 278.388 269.536 279.028 269.36C279.668 269.184 280.268 268.848 280.828 268.352C281.388 267.84 281.844 267.096 282.196 266.12C282.564 265.128 282.748 263.832 282.748 262.232L286.492 264.008C286.492 266.056 286.076 267.976 285.244 269.768C284.412 271.56 283.156 273.008 281.476 274.112C279.812 275.216 277.708 275.768 275.164 275.768ZM283.564 275V266.408H282.748V249.08H289.324V275H283.564ZM303.232 275.72C301.376 275.72 299.8 275.368 298.504 274.664C297.224 273.944 296.248 272.992 295.576 271.808C294.92 270.608 294.592 269.288 294.592 267.848C294.592 266.648 294.776 265.552 295.144 264.56C295.512 263.568 296.104 262.696 296.92 261.944C297.752 261.176 298.864 260.536 300.256 260.024C301.216 259.672 302.36 259.36 303.688 259.088C305.016 258.816 306.52 258.56 308.2 258.32C309.88 258.064 311.728 257.784 313.744 257.48L311.392 258.776C311.392 257.24 311.024 256.112 310.288 255.392C309.552 254.672 308.32 254.312 306.592 254.312C305.632 254.312 304.632 254.544 303.592 255.008C302.552 255.472 301.824 256.296 301.408 257.48L295.504 255.608C296.16 253.464 297.392 251.72 299.2 250.376C301.008 249.032 303.472 248.36 306.592 248.36C308.88 248.36 310.912 248.712 312.688 249.416C314.464 250.12 315.808 251.336 316.72 253.064C317.232 254.024 317.536 254.984 317.632 255.944C317.728 256.904 317.776 257.976 317.776 259.16V275H312.064V269.672L312.88 270.776C311.616 272.52 310.248 273.784 308.776 274.568C307.32 275.336 305.472 275.72 303.232 275.72ZM304.624 270.584C305.824 270.584 306.832 270.376 307.648 269.96C308.48 269.528 309.136 269.04 309.616 268.496C310.112 267.952 310.448 267.496 310.624 267.128C310.96 266.424 311.152 265.608 311.2 264.68C311.264 263.736 311.296 262.952 311.296 262.328L313.216 262.808C311.28 263.128 309.712 263.4 308.512 263.624C307.312 263.832 306.344 264.024 305.608 264.2C304.872 264.376 304.224 264.568 303.664 264.776C303.024 265.032 302.504 265.312 302.104 265.616C301.72 265.904 301.432 266.224 301.24 266.576C301.064 266.928 300.976 267.32 300.976 267.752C300.976 268.344 301.12 268.856 301.408 269.288C301.712 269.704 302.136 270.024 302.68 270.248C303.224 270.472 303.872 270.584 304.624 270.584ZM324.496 275V239.72H331.024V275H324.496Z" fill="#FBFBFB"/>
<path d="M84.3898 526.061V512.238H92.8369V514.849H87.0007V517.844H91.685V520.455H87.0007V526.061H84.3898ZM99.1075 526.349C98.0452 526.349 97.1077 526.122 96.295 525.667C95.4886 525.206 94.8551 524.576 94.3943 523.776C93.94 522.97 93.7128 522.048 93.7128 521.012C93.7128 519.879 93.9368 518.894 94.3847 518.055C94.8327 517.217 95.4502 516.567 96.2374 516.107C97.0245 515.639 97.93 515.406 98.9539 515.406C100.042 515.406 100.966 515.662 101.728 516.174C102.49 516.686 103.053 517.406 103.417 518.334C103.782 519.261 103.91 520.353 103.801 521.607H101.219V520.647C101.219 519.591 101.05 518.833 100.711 518.372C100.378 517.905 99.8306 517.671 99.0691 517.671C98.1796 517.671 97.5236 517.943 97.1013 518.487C96.6853 519.025 96.4773 519.821 96.4773 520.877C96.4773 521.844 96.6853 522.592 97.1013 523.123C97.5236 523.648 98.1412 523.911 98.9539 523.911C99.4658 523.911 99.9042 523.799 100.269 523.575C100.634 523.351 100.912 523.027 101.104 522.605L103.715 523.354C103.325 524.301 102.707 525.037 101.862 525.562C101.024 526.086 100.106 526.349 99.1075 526.349ZM95.671 521.607V519.668H102.544V521.607H95.671ZM111.056 526.349C110.026 526.349 109.165 526.109 108.474 525.629C107.783 525.149 107.261 524.496 106.91 523.671C106.564 522.845 106.391 521.914 106.391 520.877C106.391 519.841 106.564 518.91 106.91 518.084C107.255 517.258 107.764 516.606 108.436 516.126C109.108 515.646 109.936 515.406 110.922 515.406C111.914 515.406 112.778 515.643 113.514 516.116C114.25 516.59 114.819 517.239 115.222 518.065C115.632 518.884 115.837 519.821 115.837 520.877C115.837 521.914 115.635 522.845 115.232 523.671C114.835 524.496 114.278 525.149 113.562 525.629C112.845 526.109 112.01 526.349 111.056 526.349ZM105.95 526.061V512.238H108.58V518.958H108.253V526.061H105.95ZM110.634 524.026C111.197 524.026 111.658 523.885 112.016 523.603C112.375 523.322 112.64 522.944 112.813 522.471C112.986 521.991 113.072 521.46 113.072 520.877C113.072 520.301 112.983 519.777 112.803 519.303C112.624 518.823 112.346 518.442 111.968 518.161C111.597 517.873 111.12 517.729 110.538 517.729C109.994 517.729 109.552 517.86 109.213 518.122C108.881 518.385 108.637 518.753 108.484 519.226C108.33 519.7 108.253 520.25 108.253 520.877C108.253 521.504 108.33 522.055 108.484 522.528C108.637 523.002 108.887 523.37 109.232 523.632C109.584 523.895 110.052 524.026 110.634 524.026ZM117.949 526.061V515.694H120.253V518.228L120.003 517.902C120.137 517.543 120.317 517.217 120.541 516.923C120.765 516.628 121.04 516.385 121.366 516.193C121.616 516.039 121.888 515.921 122.182 515.838C122.476 515.748 122.78 515.694 123.094 515.675C123.408 515.649 123.721 515.655 124.035 515.694V518.132C123.747 518.042 123.411 518.014 123.027 518.046C122.649 518.071 122.307 518.158 122 518.305C121.692 518.446 121.433 518.634 121.222 518.871C121.011 519.101 120.851 519.377 120.742 519.697C120.633 520.01 120.579 520.365 120.579 520.762V526.061H117.949ZM129.719 526.368C128.907 526.368 128.244 526.23 127.732 525.955C127.22 525.68 126.82 525.331 126.532 524.909C126.251 524.487 126.049 524.048 125.928 523.594C125.806 523.133 125.733 522.714 125.707 522.336C125.681 521.959 125.669 521.684 125.669 521.511V515.694H128.318V520.589C128.318 520.826 128.331 521.13 128.356 521.501C128.382 521.866 128.462 522.234 128.596 522.605C128.731 522.976 128.948 523.287 129.249 523.536C129.556 523.786 129.988 523.911 130.545 523.911C130.769 523.911 131.009 523.875 131.265 523.805C131.521 523.735 131.761 523.6 131.985 523.402C132.209 523.197 132.391 522.9 132.532 522.509C132.679 522.112 132.753 521.594 132.753 520.954L134.25 521.664C134.25 522.484 134.084 523.251 133.751 523.968C133.418 524.685 132.916 525.264 132.244 525.706C131.578 526.147 130.737 526.368 129.719 526.368ZM133.079 526.061V522.624H132.753V515.694H135.383V526.061H133.079ZM140.945 526.349C140.203 526.349 139.573 526.208 139.054 525.926C138.542 525.638 138.152 525.258 137.883 524.784C137.621 524.304 137.49 523.776 137.49 523.2C137.49 522.72 137.563 522.282 137.71 521.885C137.858 521.488 138.094 521.14 138.421 520.839C138.754 520.532 139.198 520.276 139.755 520.071C140.139 519.93 140.597 519.805 141.128 519.697C141.659 519.588 142.26 519.485 142.932 519.389C143.604 519.287 144.343 519.175 145.15 519.054L144.209 519.572C144.209 518.958 144.062 518.506 143.767 518.218C143.473 517.93 142.98 517.786 142.289 517.786C141.905 517.786 141.505 517.879 141.089 518.065C140.673 518.25 140.382 518.58 140.216 519.054L137.854 518.305C138.117 517.447 138.61 516.75 139.333 516.212C140.056 515.675 141.041 515.406 142.289 515.406C143.204 515.406 144.017 515.547 144.727 515.828C145.438 516.11 145.975 516.596 146.34 517.287C146.545 517.671 146.666 518.055 146.705 518.439C146.743 518.823 146.762 519.252 146.762 519.725V526.061H144.478V523.93L144.804 524.371C144.299 525.069 143.751 525.574 143.163 525.888C142.58 526.195 141.841 526.349 140.945 526.349ZM141.502 524.295C141.982 524.295 142.385 524.211 142.712 524.045C143.044 523.872 143.307 523.677 143.499 523.459C143.697 523.242 143.831 523.059 143.902 522.912C144.036 522.631 144.113 522.304 144.132 521.933C144.158 521.556 144.171 521.242 144.171 520.993L144.938 521.184C144.164 521.312 143.537 521.421 143.057 521.511C142.577 521.594 142.19 521.671 141.896 521.741C141.601 521.812 141.342 521.888 141.118 521.972C140.862 522.074 140.654 522.186 140.494 522.308C140.341 522.423 140.225 522.551 140.149 522.692C140.078 522.832 140.043 522.989 140.043 523.162C140.043 523.399 140.101 523.603 140.216 523.776C140.337 523.943 140.507 524.071 140.725 524.16C140.942 524.25 141.201 524.295 141.502 524.295ZM149.258 526.061V515.694H151.562V518.228L151.312 517.902C151.447 517.543 151.626 517.217 151.85 516.923C152.074 516.628 152.349 516.385 152.675 516.193C152.925 516.039 153.197 515.921 153.491 515.838C153.786 515.748 154.09 515.694 154.403 515.675C154.717 515.649 155.03 515.655 155.344 515.694V518.132C155.056 518.042 154.72 518.014 154.336 518.046C153.959 518.071 153.616 518.158 153.309 518.305C153.002 518.446 152.743 518.634 152.531 518.871C152.32 519.101 152.16 519.377 152.052 519.697C151.943 520.01 151.888 520.365 151.888 520.762V526.061H149.258ZM158.12 530.668L160.116 525.178L160.155 526.79L155.643 515.694H158.35L161.383 523.546H160.769L163.783 515.694H166.394L160.539 530.668H158.12ZM173.369 522.893C172.825 522.893 172.329 522.768 171.881 522.519C171.439 522.263 171.087 521.917 170.825 521.482C170.563 521.047 170.432 520.557 170.432 520.013C170.432 519.463 170.563 518.97 170.825 518.535C171.094 518.1 171.449 517.758 171.891 517.508C172.332 517.258 172.825 517.134 173.369 517.134C173.881 517.134 174.351 517.258 174.78 517.508C175.209 517.758 175.551 518.1 175.807 518.535C176.063 518.97 176.191 519.463 176.191 520.013C176.191 520.557 176.063 521.047 175.807 521.482C175.551 521.917 175.209 522.263 174.78 522.519C174.351 522.768 173.881 522.893 173.369 522.893ZM185.021 526.042V523.776L190.818 518.631C191.254 518.247 191.561 517.886 191.74 517.546C191.919 517.207 192.009 516.891 192.009 516.596C192.009 516.174 191.922 515.799 191.749 515.473C191.577 515.14 191.334 514.881 191.02 514.696C190.706 514.504 190.338 514.408 189.916 514.408C189.475 514.408 189.084 514.51 188.745 514.715C188.412 514.913 188.153 515.179 187.967 515.511C187.782 515.838 187.696 516.193 187.708 516.577H185.021C185.021 515.63 185.229 514.811 185.645 514.12C186.06 513.428 186.64 512.894 187.382 512.517C188.124 512.139 188.988 511.95 189.974 511.95C190.876 511.95 191.682 512.149 192.393 512.545C193.109 512.936 193.672 513.483 194.082 514.187C194.492 514.891 194.696 515.707 194.696 516.635C194.696 517.319 194.6 517.889 194.408 518.343C194.216 518.791 193.932 519.207 193.554 519.591C193.177 519.969 192.713 520.397 192.162 520.877L188.419 524.16L188.207 523.584H194.696V526.042H185.021ZM202.117 526.349C201.093 526.349 200.197 526.134 199.429 525.706C198.661 525.277 198.063 524.679 197.634 523.911C197.205 523.143 196.991 522.247 196.991 521.223V517.076C196.991 516.052 197.205 515.156 197.634 514.388C198.063 513.62 198.661 513.022 199.429 512.593C200.197 512.165 201.093 511.95 202.117 511.95C203.141 511.95 204.037 512.165 204.804 512.593C205.572 513.022 206.171 513.62 206.599 514.388C207.028 515.156 207.243 516.052 207.243 517.076V521.223C207.243 522.247 207.028 523.143 206.599 523.911C206.171 524.679 205.572 525.277 204.804 525.706C204.037 526.134 203.141 526.349 202.117 526.349ZM202.117 523.872C202.577 523.872 202.993 523.763 203.365 523.546C203.736 523.328 204.03 523.034 204.248 522.663C204.465 522.292 204.574 521.876 204.574 521.415V516.865C204.574 516.404 204.465 515.988 204.248 515.617C204.03 515.246 203.736 514.952 203.365 514.734C202.993 514.516 202.577 514.408 202.117 514.408C201.656 514.408 201.24 514.516 200.869 514.734C200.498 514.952 200.203 515.246 199.986 515.617C199.768 515.988 199.659 516.404 199.659 516.865V521.415C199.659 521.876 199.768 522.292 199.986 522.663C200.203 523.034 200.498 523.328 200.869 523.546C201.24 523.763 201.656 523.872 202.117 523.872ZM209.543 526.042V523.776L215.341 518.631C215.776 518.247 216.083 517.886 216.262 517.546C216.442 517.207 216.531 516.891 216.531 516.596C216.531 516.174 216.445 515.799 216.272 515.473C216.099 515.14 215.856 514.881 215.542 514.696C215.229 514.504 214.861 514.408 214.439 514.408C213.997 514.408 213.607 514.51 213.268 514.715C212.935 514.913 212.676 515.179 212.49 515.511C212.304 515.838 212.218 516.193 212.231 516.577H209.543C209.543 515.63 209.751 514.811 210.167 514.12C210.583 513.428 211.162 512.894 211.904 512.517C212.647 512.139 213.511 511.95 214.496 511.95C215.398 511.95 216.205 512.149 216.915 512.545C217.632 512.936 218.195 513.483 218.605 514.187C219.014 514.891 219.219 515.707 219.219 516.635C219.219 517.319 219.123 517.889 218.931 518.343C218.739 518.791 218.454 519.207 218.077 519.591C217.699 519.969 217.235 520.397 216.685 520.877L212.941 524.16L212.73 523.584H219.219V526.042H209.543ZM221.129 526.042V523.776L226.927 518.631C227.362 518.247 227.67 517.886 227.849 517.546C228.028 517.207 228.118 516.891 228.118 516.596C228.118 516.174 228.031 515.799 227.858 515.473C227.686 515.14 227.442 514.881 227.129 514.696C226.815 514.504 226.447 514.408 226.025 514.408C225.583 514.408 225.193 514.51 224.854 514.715C224.521 514.913 224.262 515.179 224.076 515.511C223.891 515.838 223.804 516.193 223.817 516.577H221.129C221.129 515.63 221.337 514.811 221.753 514.12C222.169 513.428 222.748 512.894 223.491 512.517C224.233 512.139 225.097 511.95 226.083 511.95C226.985 511.95 227.791 512.149 228.501 512.545C229.218 512.936 229.781 513.483 230.191 514.187C230.6 514.891 230.805 515.707 230.805 516.635C230.805 517.319 230.709 517.889 230.517 518.343C230.325 518.791 230.041 519.207 229.663 519.591C229.285 519.969 228.821 520.397 228.271 520.877L224.527 524.16L224.316 523.584H230.805V526.042H221.129Z" fill="#FBFBFB"/>
<path d="M90.0724 487.185C88.6965 487.185 87.5286 486.881 86.5687 486.273C85.6088 485.665 84.8761 484.82 84.3706 483.739C83.8714 482.657 83.6218 481.406 83.6218 479.985C83.6218 478.565 83.8714 477.314 84.3706 476.232C84.8761 475.151 85.6088 474.306 86.5687 473.698C87.5286 473.09 88.6965 472.786 90.0724 472.786C91.6722 472.786 92.9873 473.193 94.0176 474.005C95.0543 474.818 95.7678 475.912 96.1582 477.288L94.4207 477.749C94.1392 476.719 93.6368 475.906 92.9137 475.311C92.1906 474.716 91.2435 474.418 90.0724 474.418C89.0421 474.418 88.1846 474.652 87.4998 475.119C86.8151 475.586 86.3 476.239 85.9544 477.077C85.6088 477.909 85.4329 478.878 85.4265 479.985C85.4201 481.086 85.5896 482.056 85.9352 482.894C86.2808 483.726 86.7991 484.379 87.4902 484.852C88.1814 485.319 89.0421 485.553 90.0724 485.553C91.2435 485.553 92.1906 485.255 92.9137 484.66C93.6368 484.059 94.1392 483.246 94.4207 482.222L96.1582 482.683C95.7678 484.052 95.0543 485.147 94.0176 485.966C92.9873 486.778 91.6722 487.185 90.0724 487.185ZM98.2634 486.897V473.074H103.725C103.86 473.074 104.02 473.081 104.205 473.093C104.391 473.1 104.57 473.119 104.743 473.151C105.491 473.266 106.119 473.522 106.624 473.919C107.136 474.316 107.52 474.818 107.776 475.426C108.032 476.027 108.16 476.696 108.16 477.432C108.16 478.501 107.882 479.429 107.325 480.216C106.768 480.997 105.952 481.486 104.877 481.684L104.224 481.79H99.972V486.897H98.2634ZM106.49 486.897L103.764 481.272L105.453 480.753L108.448 486.897H106.49ZM99.972 480.168H103.668C103.789 480.168 103.927 480.161 104.08 480.149C104.24 480.136 104.391 480.113 104.532 480.081C104.973 479.979 105.331 479.793 105.607 479.525C105.888 479.25 106.093 478.93 106.221 478.565C106.349 478.194 106.413 477.816 106.413 477.432C106.413 477.048 106.349 476.674 106.221 476.309C106.093 475.938 105.888 475.615 105.607 475.339C105.331 475.064 104.973 474.879 104.532 474.783C104.391 474.744 104.24 474.722 104.08 474.716C103.927 474.703 103.789 474.696 103.668 474.696H99.972V480.168ZM115.467 487.185C114.488 487.185 113.605 487.018 112.818 486.686C112.037 486.353 111.391 485.879 110.879 485.265C110.373 484.644 110.044 483.911 109.89 483.067L111.656 482.788C111.88 483.659 112.344 484.34 113.048 484.833C113.759 485.319 114.594 485.562 115.554 485.562C116.174 485.562 116.734 485.466 117.233 485.274C117.739 485.076 118.139 484.795 118.433 484.43C118.728 484.065 118.875 483.633 118.875 483.134C118.875 482.827 118.82 482.564 118.712 482.347C118.609 482.123 118.465 481.934 118.28 481.78C118.101 481.62 117.896 481.486 117.665 481.377C117.435 481.268 117.195 481.179 116.945 481.109L113.423 480.062C113.039 479.947 112.667 479.803 112.309 479.63C111.951 479.451 111.631 479.23 111.349 478.968C111.068 478.699 110.844 478.379 110.677 478.008C110.511 477.63 110.428 477.186 110.428 476.674C110.428 475.855 110.639 475.157 111.061 474.581C111.49 473.999 112.069 473.554 112.799 473.247C113.528 472.94 114.351 472.789 115.266 472.796C116.194 472.802 117.022 472.969 117.752 473.295C118.488 473.615 119.096 474.076 119.576 474.677C120.062 475.279 120.388 475.999 120.555 476.837L118.74 477.154C118.644 476.591 118.43 476.107 118.097 475.704C117.771 475.295 117.361 474.981 116.869 474.764C116.376 474.54 115.835 474.424 115.246 474.418C114.683 474.412 114.175 474.501 113.72 474.687C113.266 474.872 112.904 475.132 112.636 475.464C112.367 475.791 112.232 476.168 112.232 476.597C112.232 477.019 112.354 477.362 112.597 477.624C112.84 477.88 113.138 478.085 113.49 478.238C113.848 478.386 114.197 478.507 114.536 478.603L117.166 479.361C117.467 479.445 117.813 479.56 118.203 479.707C118.6 479.854 118.984 480.062 119.355 480.331C119.726 480.593 120.033 480.945 120.276 481.387C120.52 481.822 120.641 482.372 120.641 483.038C120.641 483.703 120.507 484.295 120.238 484.814C119.976 485.332 119.608 485.767 119.134 486.119C118.66 486.465 118.11 486.727 117.483 486.906C116.856 487.092 116.184 487.185 115.467 487.185ZM126.306 481.55V480.139H132.065V481.55H126.306ZM137.443 486.897L142.07 473.074H144.45L149.077 486.897H147.301L142.972 474.072H143.51L139.219 486.897H137.443ZM139.67 483.662V482.059H146.85V483.662H139.67ZM154.712 487.175C153.477 487.175 152.463 486.906 151.669 486.369C150.882 485.825 150.399 485.067 150.22 484.094L151.967 483.815C152.107 484.379 152.431 484.827 152.936 485.159C153.442 485.486 154.069 485.649 154.818 485.649C155.528 485.649 156.085 485.502 156.488 485.207C156.891 484.913 157.092 484.513 157.092 484.007C157.092 483.713 157.025 483.476 156.891 483.297C156.757 483.112 156.478 482.939 156.056 482.779C155.64 482.619 155.01 482.427 154.165 482.203C153.25 481.96 152.53 481.707 152.005 481.444C151.48 481.182 151.106 480.878 150.882 480.533C150.658 480.187 150.546 479.768 150.546 479.275C150.546 478.667 150.712 478.136 151.045 477.682C151.378 477.221 151.842 476.866 152.437 476.616C153.039 476.367 153.736 476.242 154.53 476.242C155.317 476.242 156.021 476.367 156.641 476.616C157.262 476.866 157.761 477.221 158.139 477.682C158.523 478.136 158.75 478.667 158.82 479.275L157.073 479.592C156.99 479.035 156.721 478.597 156.267 478.277C155.819 477.957 155.24 477.787 154.53 477.768C153.858 477.742 153.31 477.861 152.888 478.123C152.472 478.386 152.264 478.741 152.264 479.189C152.264 479.438 152.341 479.653 152.495 479.832C152.655 480.011 152.946 480.181 153.368 480.341C153.797 480.501 154.418 480.683 155.23 480.888C156.145 481.118 156.865 481.371 157.39 481.646C157.921 481.915 158.299 482.235 158.523 482.606C158.747 482.971 158.859 483.422 158.859 483.959C158.859 484.958 158.491 485.745 157.755 486.321C157.019 486.89 156.005 487.175 154.712 487.175ZM163.923 487.185C163.148 487.185 162.499 487.044 161.974 486.762C161.456 486.474 161.062 486.097 160.793 485.63C160.531 485.163 160.4 484.651 160.4 484.094C160.4 483.55 160.502 483.08 160.707 482.683C160.918 482.28 161.213 481.947 161.59 481.684C161.968 481.416 162.419 481.205 162.944 481.051C163.436 480.917 163.987 480.801 164.595 480.705C165.209 480.603 165.83 480.51 166.457 480.427C167.084 480.344 167.669 480.264 168.213 480.187L167.599 480.542C167.618 479.621 167.433 478.939 167.042 478.498C166.658 478.056 165.993 477.835 165.046 477.835C164.419 477.835 163.868 477.979 163.395 478.267C162.928 478.549 162.598 479.01 162.406 479.649L160.784 479.16C161.033 478.251 161.516 477.538 162.233 477.019C162.95 476.501 163.894 476.242 165.065 476.242C166.006 476.242 166.812 476.411 167.484 476.751C168.162 477.083 168.649 477.589 168.943 478.267C169.09 478.587 169.183 478.936 169.221 479.313C169.26 479.685 169.279 480.075 169.279 480.485V486.897H167.762V484.411L168.117 484.641C167.727 485.479 167.18 486.113 166.476 486.542C165.778 486.97 164.927 487.185 163.923 487.185ZM164.182 485.754C164.796 485.754 165.327 485.646 165.775 485.428C166.23 485.204 166.594 484.913 166.87 484.555C167.145 484.19 167.324 483.793 167.407 483.364C167.503 483.044 167.554 482.689 167.561 482.299C167.573 481.902 167.58 481.598 167.58 481.387L168.175 481.646C167.618 481.723 167.071 481.796 166.534 481.867C165.996 481.937 165.487 482.014 165.007 482.097C164.527 482.174 164.095 482.267 163.711 482.376C163.43 482.465 163.164 482.58 162.915 482.721C162.672 482.862 162.473 483.044 162.32 483.268C162.172 483.486 162.099 483.758 162.099 484.084C162.099 484.366 162.169 484.635 162.31 484.891C162.457 485.147 162.681 485.354 162.982 485.514C163.289 485.674 163.689 485.754 164.182 485.754ZM174.203 486.897L170.44 476.53H172.168L175.076 484.718L177.975 476.53H179.712L175.95 486.897H174.203ZM181.641 474.696V472.93H183.349V474.696H181.641ZM181.641 486.897V476.53H183.349V486.897H181.641ZM186.229 486.897V476.53H187.756V479.035L187.506 478.709C187.628 478.389 187.784 478.094 187.976 477.826C188.175 477.557 188.396 477.336 188.639 477.163C188.908 476.946 189.212 476.779 189.551 476.664C189.89 476.549 190.235 476.482 190.587 476.463C190.939 476.437 191.269 476.459 191.576 476.53V478.133C191.218 478.037 190.824 478.011 190.395 478.056C189.967 478.101 189.57 478.258 189.205 478.526C188.872 478.763 188.613 479.051 188.428 479.39C188.248 479.729 188.124 480.097 188.053 480.494C187.983 480.885 187.948 481.284 187.948 481.694V486.897H186.229ZM199.179 486.897C198.565 487.018 197.957 487.066 197.356 487.041C196.76 487.022 196.229 486.903 195.762 486.686C195.295 486.462 194.94 486.116 194.697 485.649C194.492 485.239 194.38 484.827 194.361 484.411C194.348 483.988 194.342 483.511 194.342 482.98V473.65H196.05V482.904C196.05 483.326 196.053 483.687 196.06 483.988C196.073 484.289 196.14 484.548 196.261 484.766C196.492 485.175 196.856 485.415 197.356 485.486C197.861 485.556 198.469 485.537 199.179 485.428V486.897ZM192.239 477.941V476.53H199.179V477.941H192.239ZM205.22 487.166C204.554 487.166 203.981 487.06 203.502 486.849C203.028 486.638 202.634 486.356 202.321 486.004C202.007 485.652 201.761 485.262 201.582 484.833C201.403 484.404 201.275 483.966 201.198 483.518C201.127 483.07 201.092 482.651 201.092 482.26V476.53H202.82V481.723C202.82 482.209 202.865 482.68 202.954 483.134C203.044 483.588 203.194 483.998 203.406 484.363C203.623 484.727 203.911 485.015 204.269 485.226C204.634 485.438 205.089 485.543 205.633 485.543C206.061 485.543 206.452 485.47 206.804 485.322C207.156 485.175 207.456 484.958 207.706 484.67C207.955 484.375 208.147 484.004 208.282 483.556C208.416 483.108 208.483 482.587 208.483 481.992L209.607 482.337C209.607 483.335 209.424 484.196 209.059 484.919C208.701 485.642 208.192 486.199 207.533 486.59C206.88 486.974 206.109 487.166 205.22 487.166ZM208.675 486.897V484.123H208.483V476.53H210.202V486.897H208.675ZM215.836 487.185C215.062 487.185 214.412 487.044 213.888 486.762C213.369 486.474 212.976 486.097 212.707 485.63C212.444 485.163 212.313 484.651 212.313 484.094C212.313 483.55 212.416 483.08 212.62 482.683C212.832 482.28 213.126 481.947 213.504 481.684C213.881 481.416 214.332 481.205 214.857 481.051C215.35 480.917 215.9 480.801 216.508 480.705C217.122 480.603 217.743 480.51 218.37 480.427C218.997 480.344 219.583 480.264 220.127 480.187L219.513 480.542C219.532 479.621 219.346 478.939 218.956 478.498C218.572 478.056 217.906 477.835 216.959 477.835C216.332 477.835 215.782 477.979 215.308 478.267C214.841 478.549 214.511 479.01 214.319 479.649L212.697 479.16C212.947 478.251 213.43 477.538 214.147 477.019C214.863 476.501 215.807 476.242 216.978 476.242C217.919 476.242 218.725 476.411 219.397 476.751C220.076 477.083 220.562 477.589 220.856 478.267C221.004 478.587 221.096 478.936 221.135 479.313C221.173 479.685 221.192 480.075 221.192 480.485V486.897H219.676V484.411L220.031 484.641C219.641 485.479 219.093 486.113 218.389 486.542C217.692 486.97 216.841 487.185 215.836 487.185ZM216.095 485.754C216.71 485.754 217.241 485.646 217.689 485.428C218.143 485.204 218.508 484.913 218.783 484.555C219.058 484.19 219.237 483.793 219.321 483.364C219.417 483.044 219.468 482.689 219.474 482.299C219.487 481.902 219.493 481.598 219.493 481.387L220.089 481.646C219.532 481.723 218.985 481.796 218.447 481.867C217.91 481.937 217.401 482.014 216.921 482.097C216.441 482.174 216.009 482.267 215.625 482.376C215.343 482.465 215.078 482.58 214.828 482.721C214.585 482.862 214.387 483.044 214.233 483.268C214.086 483.486 214.012 483.758 214.012 484.084C214.012 484.366 214.083 484.635 214.224 484.891C214.371 485.147 214.595 485.354 214.895 485.514C215.203 485.674 215.603 485.754 216.095 485.754ZM223.88 486.897V472.786H225.589V486.897H223.88ZM228.277 481.55V480.139H234.036V481.55H228.277ZM243.321 486.897L239.318 473.074H241.103L244.175 484.007L247.237 473.084L249.032 473.074L252.104 484.007L255.166 473.074H256.961L252.958 486.897H251.25L248.14 476.059L245.029 486.897H243.321ZM261.946 487.185C260.928 487.185 260.039 486.961 259.277 486.513C258.522 486.058 257.933 485.428 257.511 484.622C257.089 483.809 256.878 482.862 256.878 481.78C256.878 480.648 257.086 479.669 257.501 478.843C257.917 478.011 258.497 477.371 259.239 476.923C259.988 476.469 260.864 476.242 261.869 476.242C262.912 476.242 263.798 476.482 264.528 476.962C265.264 477.442 265.814 478.126 266.179 479.016C266.55 479.905 266.71 480.965 266.659 482.193H264.931V481.579C264.912 480.305 264.653 479.355 264.154 478.728C263.654 478.094 262.912 477.778 261.927 477.778C260.871 477.778 260.068 478.117 259.517 478.795C258.967 479.473 258.692 480.446 258.692 481.713C258.692 482.936 258.967 483.883 259.517 484.555C260.068 485.226 260.852 485.562 261.869 485.562C262.554 485.562 263.149 485.406 263.654 485.092C264.16 484.779 264.557 484.327 264.845 483.739L266.486 484.305C266.083 485.22 265.475 485.93 264.662 486.436C263.856 486.935 262.951 487.185 261.946 487.185ZM258.116 482.193V480.821H265.776V482.193H258.116ZM271.68 486.897L276.306 473.074H278.687L283.314 486.897H281.538L277.209 474.072H277.746L273.455 486.897H271.68ZM273.907 483.662V482.059H281.087V483.662H273.907ZM285.032 486.897V476.53H286.558V479.035L286.309 478.709C286.43 478.389 286.587 478.094 286.779 477.826C286.977 477.557 287.198 477.336 287.441 477.163C287.71 476.946 288.014 476.779 288.353 476.664C288.692 476.549 289.038 476.482 289.39 476.463C289.742 476.437 290.071 476.459 290.379 476.53V478.133C290.02 478.037 289.627 478.011 289.198 478.056C288.769 478.101 288.372 478.258 288.008 478.526C287.675 478.763 287.416 479.051 287.23 479.39C287.051 479.729 286.926 480.097 286.856 480.494C286.785 480.885 286.75 481.284 286.75 481.694V486.897H285.032ZM296.499 487.185C295.481 487.185 294.592 486.961 293.83 486.513C293.075 486.058 292.486 485.428 292.064 484.622C291.641 483.809 291.43 482.862 291.43 481.78C291.43 480.648 291.638 479.669 292.054 478.843C292.47 478.011 293.049 477.371 293.792 476.923C294.54 476.469 295.417 476.242 296.422 476.242C297.465 476.242 298.351 476.482 299.081 476.962C299.817 477.442 300.367 478.126 300.732 479.016C301.103 479.905 301.263 480.965 301.212 482.193H299.484V481.579C299.465 480.305 299.206 479.355 298.706 478.728C298.207 478.094 297.465 477.778 296.479 477.778C295.423 477.778 294.62 478.117 294.07 478.795C293.52 479.473 293.245 480.446 293.245 481.713C293.245 482.936 293.52 483.883 294.07 484.555C294.62 485.226 295.404 485.562 296.422 485.562C297.107 485.562 297.702 485.406 298.207 485.092C298.713 484.779 299.11 484.327 299.397 483.739L301.039 484.305C300.636 485.22 300.028 485.93 299.215 486.436C298.409 486.935 297.503 487.185 296.499 487.185ZM292.669 482.193V480.821H300.329V482.193H292.669ZM306.232 486.897L310.859 473.074H313.24L317.866 486.897H316.09L311.761 474.072H312.299L308.008 486.897H306.232ZM308.459 483.662V482.059H315.639V483.662H308.459ZM326.966 486.897V481.704C326.966 481.211 326.922 480.737 326.832 480.283C326.749 479.829 326.598 479.422 326.381 479.064C326.17 478.699 325.882 478.411 325.517 478.2C325.159 477.989 324.704 477.883 324.154 477.883C323.725 477.883 323.335 477.957 322.983 478.104C322.637 478.245 322.34 478.462 322.09 478.757C321.84 479.051 321.645 479.422 321.504 479.87C321.37 480.312 321.303 480.833 321.303 481.435L320.18 481.089C320.18 480.085 320.359 479.224 320.717 478.507C321.082 477.784 321.591 477.231 322.244 476.847C322.903 476.456 323.677 476.261 324.567 476.261C325.239 476.261 325.811 476.367 326.285 476.578C326.758 476.789 327.152 477.071 327.465 477.422C327.779 477.768 328.025 478.158 328.205 478.594C328.384 479.022 328.509 479.461 328.579 479.909C328.656 480.35 328.694 480.769 328.694 481.166V486.897H326.966ZM319.575 486.897V476.53H321.111V479.304H321.303V486.897H319.575ZM335.385 491.792C334.841 491.792 334.309 491.709 333.791 491.543C333.273 491.376 332.796 491.124 332.361 490.784C331.932 490.452 331.574 490.029 331.286 489.517L332.85 488.692C333.106 489.197 333.468 489.565 333.935 489.796C334.409 490.026 334.895 490.141 335.394 490.141C336.053 490.141 336.6 490.02 337.036 489.776C337.471 489.54 337.791 489.184 337.995 488.711C338.207 488.237 338.309 487.649 338.303 486.945V484.113H338.504V476.53H340.021V486.964C340.021 487.245 340.011 487.517 339.992 487.78C339.979 488.042 339.947 488.301 339.896 488.557C339.762 489.293 339.496 489.898 339.099 490.372C338.703 490.852 338.191 491.207 337.564 491.437C336.936 491.674 336.21 491.792 335.385 491.792ZM335.26 487.185C334.293 487.185 333.465 486.945 332.774 486.465C332.082 485.978 331.548 485.322 331.171 484.497C330.799 483.671 330.614 482.74 330.614 481.704C330.614 480.667 330.799 479.736 331.171 478.91C331.548 478.085 332.082 477.435 332.774 476.962C333.465 476.482 334.29 476.242 335.25 476.242C336.229 476.242 337.052 476.479 337.717 476.952C338.383 477.426 338.885 478.075 339.224 478.901C339.57 479.726 339.742 480.661 339.742 481.704C339.742 482.734 339.57 483.665 339.224 484.497C338.885 485.322 338.383 485.978 337.717 486.465C337.052 486.945 336.232 487.185 335.26 487.185ZM335.471 485.62C336.168 485.62 336.741 485.454 337.189 485.121C337.637 484.782 337.967 484.318 338.178 483.729C338.395 483.134 338.504 482.459 338.504 481.704C338.504 480.936 338.395 480.261 338.178 479.678C337.967 479.09 337.64 478.632 337.199 478.306C336.757 477.973 336.197 477.806 335.519 477.806C334.815 477.806 334.233 477.979 333.772 478.325C333.318 478.67 332.978 479.138 332.754 479.726C332.537 480.315 332.428 480.974 332.428 481.704C332.428 482.44 332.54 483.105 332.764 483.7C332.988 484.289 333.324 484.756 333.772 485.102C334.226 485.447 334.793 485.62 335.471 485.62ZM346.637 487.166C345.971 487.166 345.398 487.06 344.918 486.849C344.445 486.638 344.051 486.356 343.738 486.004C343.424 485.652 343.178 485.262 342.999 484.833C342.819 484.404 342.692 483.966 342.615 483.518C342.544 483.07 342.509 482.651 342.509 482.26V476.53H344.237V481.723C344.237 482.209 344.282 482.68 344.371 483.134C344.461 483.588 344.611 483.998 344.822 484.363C345.04 484.727 345.328 485.015 345.686 485.226C346.051 485.438 346.506 485.543 347.049 485.543C347.478 485.543 347.869 485.47 348.221 485.322C348.573 485.175 348.873 484.958 349.123 484.67C349.372 484.375 349.564 484.004 349.699 483.556C349.833 483.108 349.9 482.587 349.9 481.992L351.023 482.337C351.023 483.335 350.841 484.196 350.476 484.919C350.118 485.642 349.609 486.199 348.95 486.59C348.297 486.974 347.526 487.166 346.637 487.166ZM350.092 486.897V484.123H349.9V476.53H351.619V486.897H350.092ZM354.498 486.897V472.786H356.207V486.897H354.498ZM362.034 487.185C361.26 487.185 360.61 487.044 360.085 486.762C359.567 486.474 359.173 486.097 358.905 485.63C358.642 485.163 358.511 484.651 358.511 484.094C358.511 483.55 358.613 483.08 358.818 482.683C359.029 482.28 359.324 481.947 359.701 481.684C360.079 481.416 360.53 481.205 361.055 481.051C361.547 480.917 362.098 480.801 362.706 480.705C363.32 480.603 363.941 480.51 364.568 480.427C365.195 480.344 365.781 480.264 366.325 480.187L365.71 480.542C365.729 479.621 365.544 478.939 365.154 478.498C364.77 478.056 364.104 477.835 363.157 477.835C362.53 477.835 361.979 477.979 361.506 478.267C361.039 478.549 360.709 479.01 360.517 479.649L358.895 479.16C359.145 478.251 359.628 477.538 360.344 477.019C361.061 476.501 362.005 476.242 363.176 476.242C364.117 476.242 364.923 476.411 365.595 476.751C366.273 477.083 366.76 477.589 367.054 478.267C367.201 478.587 367.294 478.936 367.333 479.313C367.371 479.685 367.39 480.075 367.39 480.485V486.897H365.873V484.411L366.229 484.641C365.838 485.479 365.291 486.113 364.587 486.542C363.89 486.97 363.039 487.185 362.034 487.185ZM362.293 485.754C362.907 485.754 363.438 485.646 363.886 485.428C364.341 485.204 364.706 484.913 364.981 484.555C365.256 484.19 365.435 483.793 365.518 483.364C365.614 483.044 365.665 482.689 365.672 482.299C365.685 481.902 365.691 481.598 365.691 481.387L366.286 481.646C365.729 481.723 365.182 481.796 364.645 481.867C364.107 481.937 363.598 482.014 363.119 482.097C362.639 482.174 362.207 482.267 361.823 482.376C361.541 482.465 361.276 482.58 361.026 482.721C360.783 482.862 360.584 483.044 360.431 483.268C360.284 483.486 360.21 483.758 360.21 484.084C360.21 484.366 360.28 484.635 360.421 484.891C360.568 485.147 360.792 485.354 361.093 485.514C361.4 485.674 361.8 485.754 362.293 485.754ZM369.886 486.897V476.53H371.412V479.035L371.163 478.709C371.284 478.389 371.441 478.094 371.633 477.826C371.831 477.557 372.052 477.336 372.295 477.163C372.564 476.946 372.868 476.779 373.207 476.664C373.546 476.549 373.892 476.482 374.244 476.463C374.596 476.437 374.925 476.459 375.233 476.53V478.133C374.874 478.037 374.481 478.011 374.052 478.056C373.623 478.101 373.226 478.258 372.862 478.526C372.529 478.763 372.27 479.051 372.084 479.39C371.905 479.729 371.78 480.097 371.71 480.494C371.639 480.885 371.604 481.284 371.604 481.694V486.897H369.886Z" fill="#FBFBFB"/>
<path d="M95.9905 458.356C93.9222 458.356 92.1036 457.94 90.5345 457.108C88.9655 456.264 87.7411 455.081 86.8615 453.56C85.9819 452.038 85.5421 450.249 85.5421 448.193V432.182L90.4632 432.146V448.157C90.4632 449.001 90.6058 449.768 90.8911 450.457C91.1764 451.147 91.5687 451.741 92.0679 452.24C92.579 452.74 93.1674 453.126 93.8331 453.399C94.5106 453.661 95.2298 453.792 95.9905 453.792C96.775 453.792 97.5001 453.655 98.1658 453.382C98.8433 453.108 99.4317 452.722 99.931 452.223C100.43 451.723 100.817 451.129 101.09 450.44C101.375 449.75 101.518 448.989 101.518 448.157V432.146H106.439V448.193C106.439 450.249 105.999 452.038 105.12 453.56C104.24 455.081 103.016 456.264 101.447 457.108C99.8775 457.94 98.0588 458.356 95.9905 458.356ZM111.773 457.821V432.146H116.623V457.821H111.773ZM121.968 457.821V432.146H130.277C130.479 432.146 130.895 432.152 131.525 432.164C132.155 432.176 132.761 432.217 133.344 432.289C135.412 432.538 137.165 433.257 138.604 434.446C140.042 435.635 141.136 437.144 141.885 438.975C142.633 440.805 143.008 442.808 143.008 444.984C143.008 447.159 142.633 449.162 141.885 450.992C141.136 452.823 140.042 454.333 138.604 455.521C137.165 456.71 135.412 457.429 133.344 457.679C132.761 457.75 132.155 457.792 131.525 457.803C130.895 457.815 130.479 457.821 130.277 457.821H121.968ZM126.889 453.257H130.277C130.598 453.257 131.032 453.251 131.579 453.239C132.126 453.215 132.619 453.162 133.059 453.078C134.176 452.853 135.085 452.33 135.787 451.509C136.5 450.689 137.023 449.703 137.356 448.55C137.7 447.397 137.873 446.208 137.873 444.984C137.873 443.7 137.694 442.482 137.338 441.328C136.993 440.175 136.464 439.201 135.751 438.404C135.038 437.608 134.14 437.103 133.059 436.889C132.619 436.794 132.126 436.74 131.579 436.728C131.032 436.716 130.598 436.711 130.277 436.711H126.889V453.257ZM156.236 458.356C154.263 458.356 152.522 457.934 151.012 457.09C149.514 456.234 148.338 455.064 147.482 453.578C146.638 452.08 146.216 450.368 146.216 448.443C146.216 446.339 146.632 444.508 147.464 442.951C148.296 441.394 149.443 440.187 150.905 439.332C152.367 438.464 154.049 438.03 155.951 438.03C157.972 438.03 159.689 438.505 161.104 439.456C162.518 440.407 163.564 441.745 164.242 443.468C164.92 445.192 165.157 447.218 164.955 449.548H160.159V447.765C160.159 445.804 159.844 444.395 159.214 443.539C158.596 442.672 157.579 442.238 156.165 442.238C154.513 442.238 153.294 442.743 152.51 443.753C151.737 444.752 151.351 446.232 151.351 448.193C151.351 449.988 151.737 451.379 152.51 452.365C153.294 453.34 154.441 453.827 155.951 453.827C156.902 453.827 157.716 453.619 158.394 453.203C159.071 452.787 159.588 452.187 159.945 451.402L164.795 452.793C164.07 454.552 162.923 455.919 161.354 456.894C159.796 457.869 158.091 458.356 156.236 458.356ZM149.853 449.548V445.946H162.619V449.548H149.853ZM176.505 458.356C174.081 458.356 172.119 457.809 170.622 456.716C169.136 455.61 168.232 454.053 167.911 452.044L172.868 451.295C173.07 452.199 173.516 452.906 174.205 453.417C174.907 453.928 175.792 454.184 176.862 454.184C177.742 454.184 178.419 454.018 178.895 453.685C179.37 453.34 179.608 452.865 179.608 452.258C179.608 451.878 179.513 451.575 179.323 451.349C179.132 451.111 178.704 450.879 178.039 450.654C177.385 450.428 176.363 450.131 174.972 449.762C173.403 449.358 172.149 448.906 171.21 448.407C170.271 447.908 169.593 447.313 169.177 446.624C168.761 445.923 168.553 445.079 168.553 444.092C168.553 442.856 168.868 441.786 169.498 440.883C170.128 439.967 171.014 439.266 172.155 438.779C173.308 438.28 174.663 438.03 176.22 438.03C177.73 438.03 179.067 438.262 180.232 438.725C181.397 439.189 182.336 439.849 183.049 440.704C183.774 441.56 184.22 442.571 184.386 443.736L179.43 444.627C179.346 443.914 179.037 443.349 178.502 442.933C177.968 442.517 177.242 442.273 176.327 442.202C175.436 442.143 174.716 442.262 174.17 442.559C173.635 442.856 173.367 443.284 173.367 443.843C173.367 444.175 173.48 444.455 173.706 444.681C173.944 444.906 174.425 445.138 175.15 445.376C175.887 445.614 177.005 445.923 178.502 446.303C179.964 446.683 181.135 447.129 182.015 447.64C182.906 448.14 183.554 448.746 183.958 449.459C184.363 450.16 184.565 451.01 184.565 452.009C184.565 453.982 183.851 455.533 182.425 456.662C180.999 457.792 179.025 458.356 176.505 458.356ZM188.839 435.89V431.611H193.689V435.89H188.839ZM188.839 457.821V438.565H193.689V457.821H188.839ZM207.272 466.915C206.178 466.915 205.138 466.736 204.152 466.38C203.165 466.035 202.28 465.548 201.495 464.918C200.722 464.3 200.092 463.574 199.605 462.742L204.098 460.567C204.407 461.138 204.847 461.572 205.418 461.869C206 462.166 206.63 462.314 207.308 462.314C208.033 462.314 208.716 462.19 209.358 461.94C210 461.702 210.511 461.34 210.892 460.852C211.284 460.377 211.468 459.783 211.444 459.069V453.471H212.05V438.565H216.294V459.141C216.294 459.616 216.27 460.062 216.223 460.478C216.187 460.906 216.116 461.328 216.009 461.744C215.7 462.921 215.123 463.889 214.279 464.65C213.447 465.411 212.425 465.976 211.212 466.344C210 466.724 208.687 466.915 207.272 466.915ZM206.844 458.356C205.073 458.356 203.522 457.91 202.19 457.019C200.859 456.127 199.819 454.915 199.07 453.382C198.333 451.848 197.965 450.119 197.965 448.193C197.965 446.232 198.339 444.49 199.088 442.969C199.849 441.435 200.913 440.229 202.28 439.349C203.647 438.47 205.251 438.03 207.094 438.03C208.924 438.03 210.464 438.476 211.712 439.367C212.96 440.259 213.905 441.471 214.547 443.005C215.189 444.538 215.51 446.267 215.51 448.193C215.51 450.119 215.183 451.848 214.529 453.382C213.887 454.915 212.924 456.127 211.64 457.019C210.357 457.91 208.758 458.356 206.844 458.356ZM207.629 454.041C208.71 454.041 209.572 453.798 210.214 453.31C210.868 452.823 211.337 452.139 211.623 451.26C211.908 450.38 212.05 449.358 212.05 448.193C212.05 447.028 211.908 446.006 211.623 445.126C211.337 444.247 210.88 443.563 210.25 443.076C209.632 442.588 208.817 442.345 207.807 442.345C206.725 442.345 205.834 442.612 205.132 443.147C204.443 443.67 203.932 444.377 203.599 445.269C203.266 446.149 203.1 447.123 203.1 448.193C203.1 449.275 203.26 450.261 203.581 451.153C203.902 452.032 204.395 452.734 205.061 453.257C205.727 453.78 206.583 454.041 207.629 454.041ZM234.41 457.821V448.728C234.41 448.288 234.386 447.729 234.339 447.052C234.291 446.363 234.143 445.673 233.893 444.984C233.644 444.294 233.233 443.718 232.663 443.254C232.104 442.791 231.308 442.559 230.274 442.559C229.858 442.559 229.412 442.624 228.936 442.755C228.461 442.886 228.015 443.141 227.599 443.522C227.183 443.89 226.838 444.437 226.565 445.162C226.303 445.887 226.173 446.85 226.173 448.05L223.391 446.731C223.391 445.209 223.7 443.783 224.318 442.452C224.937 441.12 225.864 440.045 227.1 439.225C228.348 438.404 229.917 437.994 231.807 437.994C233.317 437.994 234.547 438.25 235.498 438.761C236.449 439.272 237.186 439.92 237.709 440.704C238.244 441.489 238.624 442.309 238.85 443.165C239.076 444.009 239.212 444.782 239.26 445.483C239.308 446.184 239.331 446.695 239.331 447.016V457.821H234.41ZM221.252 457.821V438.565H225.566V444.948H226.173V457.821H221.252Z" fill="#4BDEFF"/>
<rect opacity="0.15" x="664" y="442" width="89.4111" height="89.4111" rx="44.7056" fill="white"/>
<path d="M744.564 468.823H732.642C726.056 468.823 720.721 474.158 720.721 480.744C720.721 487.331 726.056 492.666 732.642 492.666C739.229 492.666 744.564 487.331 744.564 480.744C744.564 478.569 743.968 476.542 742.954 474.784H744.564V468.823ZM738.603 480.744C738.603 484.023 735.921 486.705 732.642 486.705C729.364 486.705 726.681 484.023 726.681 480.744C726.681 477.466 729.364 474.784 732.642 474.784C735.921 474.784 738.603 477.466 738.603 480.744Z" fill="white"/>
<path d="M705.726 468.824C702.15 468.824 698.961 470.374 696.785 472.878C694.61 470.374 691.421 468.824 687.844 468.824C681.258 468.824 675.923 474.159 675.923 480.746C675.923 487.332 681.258 492.667 687.844 492.667C690.02 492.667 692.047 492.071 693.805 491.058V492.667H699.766V480.746C699.766 477.467 702.448 474.785 705.726 474.785C709.005 474.785 711.687 477.467 711.687 480.746V492.667H717.648V480.746C717.648 474.159 712.313 468.824 705.726 468.824ZM687.844 486.706C684.566 486.706 681.884 484.024 681.884 480.746C681.884 477.467 684.566 474.785 687.844 474.785C691.123 474.785 693.805 477.467 693.805 480.746C693.805 484.024 691.123 486.706 687.844 486.706Z" fill="white"/>
<path d="M732.642 498.627C729.364 498.627 726.681 495.945 726.681 492.666H720.721C720.721 499.253 726.056 504.588 732.642 504.588C739.229 504.588 744.564 499.253 744.564 492.666H738.603C738.603 495.945 735.921 498.627 732.642 498.627Z" fill="white"/>
<path d="M722.557 82H710V97.8H722.557V82Z" fill="#FBFBFB"/>
<path d="M735.115 82H722.558V97.8H735.115V82Z" fill="#27E0E0"/>
<path d="M747.671 82H735.114V97.8H747.671V82Z" fill="#FFC800"/>
<path d="M760.228 82H747.671V97.8H760.228V82Z" fill="#FA4616"/>
<g opacity="0.15">
<path d="M1019.18 788.177L1019.18 479.089C1019.18 308.317 880.861 170 710.089 170C539.318 170 401 308.317 401 479.089C401 649.86 539.318 788.177 710.089 788.177C766.498 788.177 819.043 772.723 864.633 746.45L864.633 788.177L1019.18 788.177ZM710.089 633.633C625.09 633.633 555.545 564.088 555.545 479.089C555.545 394.089 625.09 324.544 710.089 324.544C795.088 324.544 864.633 394.089 864.633 479.089C864.633 564.088 795.088 633.633 710.089 633.633Z" fill="white"/>
</g>
</g>
<defs>
<clipPath id="clip0_237_3382">
<rect width="852" height="632" fill="white"/>
</clipPath>
</defs>
</svg>
