<svg width="474" height="425" viewBox="0 0 474 425" fill="none" xmlns="http://www.w3.org/2000/svg">
<g clip-path="url(#clip0_482_80)">
<path d="M474 0H0V425H474V0Z" fill="#062238"/>
<path d="M119.04 40.07C119.04 40.07 151.72 52.33 134.36 91.13C134.36 90.11 105.25 158.53 105.25 158.53C105.25 158.53 65.93 139.64 60.31 174.36C60.31 175.38 57.76 201.93 88.91 205.51C91.46 209.08 137.93 314.28 154.78 322.96C155.29 326.53 172.65 351.56 188.99 311.22C188.99 310.2 201.25 291.31 209.42 288.24C209.42 288.75 230.87 280.58 242.61 282.62C243.12 282.62 269.16 290.79 273.76 303.05C274.78 303.56 302.87 331.65 311.55 292.84C312.57 292.33 311.55 255.56 311.55 255.56C311.55 255.56 344.74 203.47 328.91 163.65C329.42 163.14 365.17 134.54 341.17 110.03C342.19 111.05 303.38 89.6 285 115.14L286.53 114.63C286.53 114.63 217.59 66.12 224.23 34.46C225.76 33.95 216.06 25.27 194.1 56.93C195.12 58.46 138.44 11.48 119.04 40.08V40.07Z" fill="#11DCF9"/>
<path d="M150.7 190.72C156.62 190.72 161.42 183.06 161.42 173.61C161.42 164.16 156.62 156.5 150.7 156.5C144.78 156.5 139.98 164.16 139.98 173.61C139.98 183.06 144.78 190.72 150.7 190.72Z" fill="black"/>
<path d="M225.51 173.6C232.701 173.6 238.53 166.114 238.53 156.88C238.53 147.646 232.701 140.16 225.51 140.16C218.319 140.16 212.49 147.646 212.49 156.88C212.49 166.114 218.319 173.6 225.51 173.6Z" fill="black"/>
<path d="M224.74 155.14C225.679 155.14 226.44 154.074 226.44 152.76C226.44 151.446 225.679 150.38 224.74 150.38C223.801 150.38 223.04 151.446 223.04 152.76C223.04 154.074 223.801 155.14 224.74 155.14Z" fill="white"/>
<path d="M150.28 170.63C151.55 170.63 152.58 169.22 152.58 167.48C152.58 165.74 151.55 164.33 150.28 164.33C149.01 164.33 147.98 165.74 147.98 167.48C147.98 169.22 149.01 170.63 150.28 170.63Z" fill="white"/>
<path d="M176.4 214.88C176.4 214.88 205.85 235.31 226.44 200.92C226.78 200.75 185.59 218.96 176.4 214.88Z" fill="#EC0058"/>
<path d="M78.7 12.3L103.21 425L124.15 418.03L95.55 0.27002L78.7 12.3Z" fill="#026C88"/>
<path d="M264.57 0L331.47 425L352.4 419.91L287.55 0H264.57Z" fill="#026C88"/>
<path d="M0 60.5C0 60.5 81.77 -0.78 124.15 1.78C122.62 0 75.13 0 75.13 0L0 42.12V60.5Z" fill="#026C88"/>
<path d="M0 21.18L40.91 0H75.13L0 42.12" fill="#034F60"/>
<path d="M5.49294e-06 376.07V406.2C5.49294e-06 406.2 314.62 289.77 471.89 317.35C474 318.37 471.89 288.24 471.89 288.24C471.89 288.24 228.32 267.81 10.78 370.45C12.82 370.96 -0.00999451 376.07 -0.00999451 376.07H5.49294e-06Z" fill="#034F60"/>
<path opacity="0.36" d="M108.32 173.1C110.02 168.17 112.55 162.18 116.36 155.78C120.27 149.22 124.44 144.05 128.04 140.16C128.04 142.2 143.17 149.86 155.7 146.8C155.7 147.31 173.97 124.84 187.01 124.84C187.01 125.35 215.71 120.24 229.8 133.01C230.32 133.52 259.02 151.9 267.37 138.12C268.94 139.14 285.71 114.43 277.03 107.52C278.15 108.37 213.1 57.95 223.02 34.46C223.02 34.46 216.76 25.78 192.23 56.93C190.26 55.07 154.16 21.83 127.47 34.21C124.73 35.48 121.86 37.34 119.04 40.08C122.31 41.57 130.73 45.95 135.89 55.65C141.18 65.59 139.88 75.16 139.32 78.9C138.5 84.38 137.1 85.85 130.72 100.93C127.18 109.29 127.58 108.9 123.77 118.13C120.02 127.2 114.33 140.41 106.28 157.27C106.96 162.55 107.64 167.82 108.32 173.1Z" fill="#10E9BC"/>
</g>
<defs>
<clipPath id="clip0_482_80">
<rect width="474" height="425" fill="white"/>
</clipPath>
</defs>
</svg>
