<svg width="92" height="88" viewBox="0 0 92 88" fill="none" xmlns="http://www.w3.org/2000/svg">
<path d="M75.1175 0.90564H16.1645C7.2265 0.90564 0 7.96157 0 16.6886V72.022C0 80.749 7.2265 87.8049 16.1645 87.8049H75.1175C84.0555 87.8049 91.282 80.749 91.282 72.022V16.6886C91.282 7.96157 84.0555 0.90564 75.1175 0.90564ZM47.5427 62.1808H39.5936C39.3273 62.2216 39.0611 62.0322 38.985 61.7723L35.8662 52.8967H21.7175L18.8269 61.6609C18.7509 61.9951 18.4466 62.2179 18.1043 62.1808H10.9538C10.5355 62.1808 10.4214 61.958 10.5355 61.5123L22.7825 27.1982C22.8966 26.8269 23.0107 26.4184 23.1628 25.9727C23.353 25.1929 23.4671 24.413 23.4671 23.596C23.4291 23.4103 23.5812 23.2246 23.7714 23.1875H33.6222C33.8885 23.1875 34.0786 23.2989 34.1167 23.4846L47.9231 61.5903C48.0372 61.9951 47.9231 62.1808 47.5427 62.1808ZM77.0192 62.2216H70.4735C70.3251 62.2347 70.1762 62.2024 70.0475 62.1292C69.9187 62.056 69.8164 61.9456 69.7547 61.8131C69.6786 61.5161 69.6026 61.1781 69.5227 60.8847C69.4466 60.6248 69.4466 60.3648 69.4466 60.1049C68.2295 61.1781 66.7462 61.9617 65.1488 62.4036C63.7795 62.7787 62.338 62.9607 60.927 62.9607C59.5235 62.9607 58.1124 62.775 56.7812 62.3293C55.5478 61.9189 54.4372 61.2173 53.5483 60.2868C52.5594 59.247 51.8368 58.0215 51.4146 56.6846C50.8791 54.9768 50.6237 53.197 50.6577 51.4112V32.9915C50.6481 32.9352 50.6504 32.8775 50.6646 32.822C50.6788 32.7666 50.7045 32.7146 50.7402 32.6693C50.7759 32.624 50.8208 32.5863 50.872 32.5587C50.9233 32.5311 50.9798 32.5141 51.0381 32.5088H58.4129C58.6449 32.4716 58.8731 32.6202 58.9111 32.8801V50.4494C58.9111 52.0797 59.2915 53.3795 60.0103 54.3079C60.7368 55.2363 62.2163 55.7228 63.9317 55.7228C64.8026 55.7228 65.6774 55.5705 66.518 55.2734C67.3928 54.9763 68.1877 54.5715 68.9141 54.0479V32.9173C68.9141 32.6573 69.1043 32.5088 69.4466 32.5088H76.7112C76.9051 32.4716 77.1257 32.6202 77.1257 32.8059V55.6819C77.1257 56.6883 77.1257 57.5796 77.1676 58.3557C77.2056 59.1393 77.2474 59.8078 77.2817 60.402C77.3577 60.9961 77.392 61.3304 77.43 61.7352C77.4756 62.0694 77.3235 62.2216 77.0192 62.2216ZM31.6825 39.639C31.3021 38.4877 30.9598 37.3736 30.5795 36.2224C30.1991 35.0712 29.8568 33.9942 29.5526 32.9173C29.2483 31.8774 28.982 30.9119 28.7158 30.0206H28.6397C28.2974 31.6175 27.8791 33.2144 27.3466 34.8112C26.7761 36.5938 26.2056 38.4506 25.597 40.3074C25.1026 42.2014 24.494 43.9468 23.9235 45.5065H33.5842C33.356 44.7267 33.0517 43.7982 32.7094 42.8327C32.3671 41.83 32.0248 40.7531 31.6825 39.639Z" fill="#CCCCCC"/>
</svg>
