<svg width="91" height="90" viewBox="0 0 91 90" fill="none" xmlns="http://www.w3.org/2000/svg">
<path d="M36.2467 40.4727V26.7728H46.3705C51.9044 26.7728 55.1406 29.3107 55.1406 33.6422C55.1406 38.0959 51.7053 40.4727 45.1078 40.4727H36.2467ZM36.2467 61.3641H47.0416C53.7756 61.3641 57.336 58.6985 57.336 53.7172C57.336 48.8026 53.6391 46.2314 46.6093 46.2314H36.2467V61.3641Z" fill="#CCCCCC"/>
<path d="M22.75 0.90564C16.7163 0.90564 10.9298 3.24593 6.66332 7.41168C2.39687 11.5774 0 17.2274 0 23.1187V67.5447C0 73.436 2.39687 79.0859 6.66332 83.2517C10.9298 87.4174 16.7163 89.7577 22.75 89.7577H68.25C74.2837 89.7577 80.0702 87.4174 84.3367 83.2517C88.6031 79.0859 91 73.436 91 67.5447V23.1187C91 17.2274 88.6031 11.5774 84.3367 7.41168C80.0702 3.24593 74.2837 0.90564 68.25 0.90564L22.75 0.90564ZM28.7787 67.5447V20.5919H48.1106C57.1366 20.5919 62.5739 25.0845 62.5739 32.3093C62.5739 37.2184 58.877 41.611 54.1393 42.394V42.9493C60.6401 43.5991 64.9683 48.1194 64.9683 54.2391C64.9683 62.5024 58.8031 67.5447 48.5428 67.5447H28.7787Z" fill="#CCCCCC"/>
</svg>
