<svg width="56" height="79" viewBox="0 0 56 79" fill="none" xmlns="http://www.w3.org/2000/svg">
<path d="M50.4158 27.9436C52.8007 25.8216 54.4724 23.0448 55.2113 19.978C55.9502 16.9113 55.7217 13.698 54.5558 10.7604C53.39 7.82276 51.3413 5.29817 48.6789 3.51829C46.0166 1.73841 42.8651 0.786493 39.6384 0.787599H15.9978C12.7712 0.786493 9.61966 1.73841 6.9573 3.51829C4.29494 5.29817 2.24626 7.82276 1.08041 10.7604C-0.0854368 13.698 -0.313926 16.9113 0.424962 19.978C1.16385 23.0448 2.83556 25.8216 5.22046 27.9436C3.57588 29.4069 2.26214 31.1892 1.36322 33.1765C0.464306 35.1639 5.81242e-06 37.3124 5.81242e-06 39.4849C5.81242e-06 41.6574 0.464306 43.806 1.36322 45.7933C2.26214 47.7807 3.57588 49.5629 5.22046 51.0263C3.25465 52.7771 1.76731 54.9791 0.893205 57.4329C0.0190988 59.8867 -0.214149 62.5146 0.214595 65.0787C0.643338 67.6427 1.72052 70.0617 3.34855 72.1166C4.97658 74.1715 7.10399 75.7973 9.53804 76.8467C11.9721 77.8962 14.6358 78.336 17.2879 78.1264C19.94 77.9168 22.4967 77.0644 24.7262 75.6465C26.9557 74.2285 28.7877 72.2898 30.056 70.006C31.3244 67.7223 31.9891 65.1655 31.99 62.5676V53.1987C34.3323 54.4574 36.9648 55.1116 39.6384 55.0997C42.8651 55.1008 46.0166 54.1489 48.6789 52.369C51.3413 50.5891 53.39 48.0645 54.5558 45.1269C55.7217 42.1892 55.9502 38.976 55.2113 35.9092C54.4724 32.8425 52.8007 30.0657 50.4158 27.9436ZM47.2869 16.4023C47.2777 18.3802 46.469 20.2745 45.0366 21.6731C43.6042 23.0716 41.6641 23.8613 39.6384 23.8702H31.99V8.93441H39.6384C41.6641 8.94334 43.6042 9.733 45.0366 11.1316C46.469 12.5301 47.2777 14.4245 47.2869 16.4023ZM8.34936 16.4023C8.35851 14.4245 9.16726 12.5301 10.5996 11.1316C12.032 9.733 13.9721 8.94334 15.9978 8.93441H23.6462V23.8702H15.9978C13.9721 23.8613 12.032 23.0716 10.5996 21.6731C9.16726 20.2745 8.35851 18.3802 8.34936 16.4023ZM8.34936 39.4849C8.35851 37.5071 9.16726 35.6128 10.5996 34.2142C12.032 32.8156 13.9721 32.026 15.9978 32.017H23.6462V46.9529H15.9978C13.9721 46.9439 12.032 46.1543 10.5996 44.7557C9.16726 43.3571 8.35851 41.4628 8.34936 39.4849ZM23.6462 62.5676C23.6462 64.0446 23.1977 65.4884 22.3572 66.7165C21.5168 67.9446 20.3223 68.9018 18.9247 69.467C17.5272 70.0323 15.9893 70.1801 14.5057 69.892C13.022 69.6038 11.6592 68.8926 10.5895 67.8482C9.51989 66.8038 8.79144 65.4731 8.49633 64.0245C8.20121 62.5759 8.35268 61.0743 8.93157 59.7097C9.51046 58.3451 10.4908 57.1788 11.7486 56.3582C13.0063 55.5377 14.4851 55.0997 15.9978 55.0997H23.6462V62.5676ZM39.6384 46.9529C37.6099 46.9529 35.6645 46.1661 34.2302 44.7656C32.7958 43.3651 31.99 41.4656 31.99 39.4849C31.99 37.5043 32.7958 35.6048 34.2302 34.2043C35.6645 32.8038 37.6099 32.017 39.6384 32.017C41.6669 32.017 43.6123 32.8038 45.0467 34.2043C46.481 35.6048 47.2869 37.5043 47.2869 39.4849C47.2869 41.4656 46.481 43.3651 45.0467 44.7656C43.6123 46.1661 41.6669 46.9529 39.6384 46.9529Z" fill="#CCCCCC"/>
</svg>
