<svg width="91" height="81" viewBox="0 0 91 81" fill="none" xmlns="http://www.w3.org/2000/svg">
<path d="M45.5 32.7208C49.8595 32.7208 53.4149 36.1922 53.4149 40.5315C53.4149 44.6641 49.8595 48.1769 45.5 48.1769C41.1405 48.1769 37.5851 44.6641 37.5851 40.5315C37.5851 36.1922 41.1405 32.7208 45.5 32.7208ZM25.9033 73.5927C28.5698 75.1631 34.4107 72.7662 41.1405 66.5672C38.9395 64.1289 36.7809 61.484 34.7493 58.7152C31.3385 58.3965 27.9476 57.8998 24.5912 57.2274C22.4326 66.0713 23.2367 72.1463 25.9033 73.5927ZM28.9084 49.8713L27.6809 47.7636C27.2153 48.9621 26.7498 50.1606 26.4535 51.3177C27.5963 51.5657 28.866 51.7723 30.1781 51.9789L28.9084 49.8713ZM56.5893 46.7305L60.0177 40.5315L56.5893 34.3325C55.3195 32.1422 53.9651 30.1998 52.7377 28.2575C50.4521 28.1335 48.0395 28.1335 45.5 28.1335C42.9605 28.1335 40.5479 28.1335 38.2623 28.2575C37.0349 30.1998 35.6805 32.1422 34.4107 34.3325L30.9823 40.5315L34.4107 46.7305C35.6805 48.9208 37.0349 50.8631 38.2623 52.8055C40.5479 52.9295 42.9605 52.9295 45.5 52.9295C48.0395 52.9295 50.4521 52.9295 52.7377 52.8055C53.9651 50.8631 55.3195 48.9208 56.5893 46.7305ZM45.5 18.959C44.6958 19.8682 43.8493 20.8187 43.0028 21.9345H47.9972C47.1507 20.8187 46.3042 19.8682 45.5 18.959ZM45.5 62.1039C46.3042 61.1948 47.1507 60.2443 47.9972 59.1284H43.0028C43.8493 60.2443 44.6958 61.1948 45.5 62.1039ZM65.0544 7.47024C62.4302 5.89983 56.5893 8.29677 49.8595 14.4958C52.0605 16.934 54.2191 19.5789 56.2507 22.3478C59.7214 22.6784 63.1498 23.1743 66.4088 23.8356C68.5674 14.9917 67.7633 8.91667 65.0544 7.47024ZM62.0916 31.1917L63.3191 33.2993C63.7846 32.1009 64.2502 30.9024 64.5465 29.7453C63.4037 29.4973 62.134 29.2907 60.8219 29.084L62.0916 31.1917ZM68.2288 2.05646C74.4507 5.52789 75.1279 14.6611 72.5037 25.3233C83.2544 28.4228 91 33.5473 91 40.5315C91 47.5157 83.2544 52.6402 72.5037 55.7397C75.1279 66.4019 74.4507 75.5351 68.2288 79.0065C62.0493 82.4779 53.6265 78.5106 45.5 70.9478C37.3735 78.5106 28.9507 82.4779 22.7288 79.0065C16.5493 75.5351 15.8721 66.4019 18.4963 55.7397C7.74558 52.6402 0 47.5157 0 40.5315C0 33.5473 7.74558 28.4228 18.4963 25.3233C15.8721 14.6611 16.5493 5.52789 22.7288 2.05646C28.9507 -1.41497 37.3735 2.55238 45.5 10.1151C53.6265 2.55238 62.0493 -1.41497 68.2288 2.05646ZM67.0014 40.5315C68.4405 43.631 69.7102 46.7305 70.7684 49.8713C79.6567 47.2677 84.6512 43.5483 84.6512 40.5315C84.6512 37.5146 79.6567 33.7953 70.7684 31.1917C69.7102 34.3325 68.4405 37.432 67.0014 40.5315ZM23.9986 40.5315C22.5595 37.432 21.2898 34.3325 20.2316 31.1917C11.3433 33.7953 6.34884 37.5146 6.34884 40.5315C6.34884 43.5483 11.3433 47.2677 20.2316 49.8713C21.2898 46.7305 22.5595 43.631 23.9986 40.5315ZM62.0916 49.8713L60.8219 51.9789C62.134 51.7723 63.4037 51.5657 64.5465 51.3177C64.2502 50.1606 63.7846 48.9621 63.3191 47.7636L62.0916 49.8713ZM49.8595 66.5672C56.5893 72.7662 62.4302 75.1631 65.0544 73.5927C67.7633 72.1463 68.5674 66.0713 66.4088 57.2274C63.1498 57.8886 59.7214 58.3846 56.2507 58.7152C54.2191 61.484 52.0605 64.1289 49.8595 66.5672ZM28.9084 31.1917L30.1781 29.084C28.866 29.2907 27.5963 29.4973 26.4535 29.7453C26.7498 30.9024 27.2153 32.1009 27.6809 33.2993L28.9084 31.1917ZM41.1405 14.4958C34.4107 8.29677 28.5698 5.89983 25.9033 7.47024C23.2367 8.91667 22.4326 14.9917 24.5912 23.8356C27.9476 23.1631 31.3385 22.6665 34.7493 22.3478C36.7809 19.5789 38.9395 16.934 41.1405 14.4958Z" fill="#CCCCCC"/>
</svg>
