<svg width="91" height="90" viewBox="0 0 91 90" fill="none" xmlns="http://www.w3.org/2000/svg">
<path d="M36.3726 31.289C34.5213 31.289 33.2145 31.4485 32.5067 31.608V43.7292C33.3234 43.9419 34.4124 43.995 35.7736 43.995C40.7829 43.995 43.832 41.6027 43.832 37.4028C43.832 33.4155 41.0007 31.289 36.3726 31.289Z" fill="#CCCCCC"/>
<path fill-rule="evenodd" clip-rule="evenodd" d="M19.6124 2.373C36.8182 0.510839 54.182 0.510839 71.3879 2.373C80.7877 3.3976 88.3659 10.623 89.4697 19.8347C91.5101 36.8695 91.5101 54.0784 89.4697 71.1131C88.3659 80.3249 80.7877 87.5502 71.3928 88.5797C54.1854 90.4424 36.8198 90.4424 19.6124 88.5797C10.2126 87.5502 2.63434 80.3249 1.53052 71.118C-0.510172 54.0816 -0.510172 36.8711 1.53052 19.8347C2.63434 10.623 10.2126 3.3976 19.6124 2.373ZM32.5067 62.3895H25.864V27.0359C28.2598 26.6106 31.5811 26.2916 36.1003 26.2916C41.0007 26.2916 44.5943 27.3017 46.9356 29.2156C49.1135 30.97 50.5292 33.7877 50.5292 37.137C50.5292 40.5394 49.4402 43.3571 47.3712 45.2709C44.6982 47.8759 40.5107 49.0987 35.7736 49.0987C34.5213 49.0987 33.3779 49.0455 32.5067 48.886V62.3895ZM59.8844 62.3895H53.1872V44.8456C53.1872 41.3369 53.1377 38.8382 52.9694 36.499H58.7954L59.0132 41.4432H59.231C60.5378 37.7749 63.6413 35.9142 66.4727 35.9142C67.126 35.9142 67.5121 35.9674 68.0566 36.0737V42.2406C67.4112 42.1019 66.7524 42.0306 66.0915 42.028C62.8791 42.028 60.7011 44.0482 60.1022 46.9722C59.9672 47.6378 59.8943 48.3139 59.8844 48.9924V62.3895Z" fill="#CCCCCC"/>
</svg>
