<svg width="91" height="90" viewBox="0 0 91 90" fill="none" xmlns="http://www.w3.org/2000/svg">
<path d="M45.5 0.952759C20.4295 0.952759 0 20.9001 0 45.3788C0 69.8576 20.4295 89.8049 45.5 89.8049C70.5705 89.8049 91 69.8576 91 45.3788C91 20.9001 70.5705 0.952759 45.5 0.952759ZM4.5955 45.3788C4.5955 39.6034 5.8695 34.0946 8.1445 29.1189L27.664 81.3195C14.014 74.8333 4.5955 61.1945 4.5955 45.3788ZM45.5 85.3178C41.496 85.3178 37.6285 84.7403 33.943 83.6741L46.228 48.844L58.786 82.4746C58.877 82.6523 58.968 82.8744 59.059 83.0077C54.8275 84.5182 50.2775 85.3178 45.5 85.3178ZM51.142 26.631C53.599 26.4977 55.8285 26.2312 55.8285 26.2312C58.0125 25.9646 57.785 22.8104 55.5555 22.9437C55.5555 22.9437 48.9125 23.4323 44.6355 23.4323C40.6315 23.4323 33.852 22.9437 33.852 22.9437C31.668 22.8548 31.395 26.1423 33.6245 26.2756C33.6245 26.2756 35.7175 26.5422 37.9015 26.6754L44.2715 43.735L35.308 69.9464L20.4295 26.631C22.8865 26.5422 25.116 26.2756 25.116 26.2756C27.3 26.0091 27.0725 22.8548 24.843 22.9881C24.843 22.9881 18.2 23.4768 13.923 23.4768C13.1495 23.4768 12.2395 23.4768 11.284 23.4323C18.655 12.5924 31.213 5.43979 45.5 5.43979C56.147 5.43979 65.8385 9.39371 73.1185 15.9243C72.9365 15.9243 72.7545 15.8799 72.5725 15.8799C68.5685 15.8799 65.702 19.3007 65.702 22.9881C65.702 26.2756 67.6585 29.0744 69.706 32.362C71.253 35.0275 73.073 38.4483 73.073 43.3796C73.073 46.8004 71.708 50.7544 69.979 56.3076L65.884 69.6354L51.142 26.631ZM81.3995 26.2312C86.5101 35.3636 87.7673 46.0832 84.9033 56.1072C82.0392 66.1312 75.2803 74.6674 66.066 79.8979L78.5785 44.6236C80.899 38.937 81.6725 34.3611 81.6725 30.3184C81.6725 28.8523 81.5815 27.4751 81.3995 26.2312Z" fill="#CCCCCC"/>
</svg>
