<svg width="92" height="88" viewBox="0 0 92 88" fill="none" xmlns="http://www.w3.org/2000/svg">
<path d="M71.6173 0.92926H19.6392C14.4305 0.92926 9.43523 2.94954 5.75217 6.54567C2.06912 10.1418 0 15.0192 0 20.1049L0 68.6286C0 73.7143 2.06912 78.5917 5.75217 82.1878C9.43523 85.7839 14.4305 87.8042 19.6392 87.8042H71.6173C76.8259 87.8042 81.8212 85.7839 85.5043 82.1878C89.1873 78.5917 91.2565 73.7143 91.2565 68.6286V20.1049C91.2565 15.0192 89.1873 10.1418 85.5043 6.54567C81.8212 2.94954 76.8259 0.92926 71.6173 0.92926ZM48.4001 62.1538H39.7042C39.0958 62.1538 38.6623 62.1316 38.419 61.7343C37.6015 60.1787 36.784 58.6343 35.9703 57.101C35.1289 55.5234 34.2618 53.9589 33.3694 52.4082C32.4423 50.8032 31.5335 49.1881 30.6432 47.5633H30.5823C29.7582 49.1685 28.9114 50.7626 28.0424 52.3451C27.1678 53.9378 26.2971 55.5231 25.4415 57.0973C24.5868 58.6727 23.7109 60.2371 22.8141 61.79C22.6468 62.1501 22.3616 62.1872 21.951 62.1872H13.5668C13.4033 62.1872 13.312 62.2504 13.293 62.0907C13.271 61.9447 13.3034 61.7959 13.3843 61.6712L25.1982 42.7183L13.6885 23.7172C13.563 23.5576 13.544 23.4276 13.6276 23.32C13.6726 23.2684 13.7296 23.2281 13.7937 23.2023C13.8578 23.1764 13.9273 23.1659 13.9965 23.1715H22.6278C22.8159 23.1638 23.0036 23.1942 23.1791 23.2606C23.3249 23.3423 23.4497 23.4553 23.5442 23.591C24.278 25.1874 25.0955 26.7801 25.9929 28.3728C26.8902 29.9655 27.799 31.5397 28.7154 33.0953C29.6317 34.6508 30.4797 36.225 31.2553 37.8177H31.3162C32.1261 36.1842 32.9512 34.5914 33.7953 33.0359C34.6394 31.4803 35.495 29.9173 36.3657 28.3431C37.244 26.7653 38.0882 25.1986 38.9057 23.6504C38.9511 23.5011 39.0349 23.3656 39.149 23.2569C39.3008 23.1831 39.4707 23.1522 39.6395 23.1678H47.6587C47.7489 23.1463 47.8441 23.1604 47.9238 23.2069C48.0035 23.2535 48.0612 23.3288 48.0846 23.4165C48.1005 23.4796 48.098 23.5458 48.0771 23.6076C48.0563 23.6693 48.018 23.7241 47.9667 23.7655L47.9705 23.7803L36.5824 42.1317L48.7652 61.6192C48.845 61.7566 48.864 61.9162 48.826 62.0684C48.788 62.2021 48.6473 62.113 48.4001 62.1538ZM77.606 60.5945C75.6159 61.404 73.5434 62.0051 71.4234 62.3877C69.4832 62.7395 67.5145 62.9197 65.5412 62.9261C62.7243 62.9664 59.9335 62.3958 57.3699 61.2554C54.9815 60.1755 52.9848 58.4137 51.6436 56.2025C50.1695 53.6227 49.4488 50.6974 49.5599 47.7452C49.5372 45.0018 50.2559 42.301 51.6436 39.9153C53.0731 37.485 55.175 35.4971 57.7083 34.1793C60.9096 32.5459 64.512 31.8108 68.1153 32.0557C68.4423 32.0743 68.8302 32.104 69.2789 32.1448V20.3685C69.2789 20.09 69.4005 19.9489 69.6477 19.9489H77.3589C77.4446 19.9373 77.5315 19.9593 77.6006 20.0101C77.6697 20.0609 77.7154 20.1363 77.7277 20.22C77.7315 20.2495 77.7315 20.2795 77.7277 20.3091V55.6419C77.7277 56.3213 77.7581 57.0564 77.8189 57.8546C77.8798 58.6491 77.933 59.3657 77.971 60.0042C77.979 60.1272 77.9483 60.2496 77.8831 60.3551C77.8178 60.4606 77.7212 60.5441 77.606 60.5945ZM68.2636 39.0169C68.6058 39.0503 68.9443 39.1097 69.2751 39.1951V55.512C68.8367 55.6393 68.3853 55.719 67.929 55.7496C67.3991 55.7913 66.8675 55.8111 66.3358 55.809C65.2645 55.8138 64.1992 55.6521 63.1799 55.3301C62.2162 55.0338 61.3362 54.5229 60.6095 53.8376C59.8514 53.0917 59.2665 52.1952 58.8946 51.2091C58.439 49.9832 58.2211 48.6852 58.252 47.3814C58.1719 45.7196 58.6094 44.0731 59.5068 42.6589C60.3167 41.4858 61.4232 40.539 62.7198 39.9079C64.0506 39.2656 65.5183 38.9352 67.0051 38.9501C67.4271 38.9575 67.8454 38.976 68.2636 39.0169Z" fill="#CCCCCC"/>
</svg>
