<svg width="92" height="88" viewBox="0 0 92 88" fill="none" xmlns="http://www.w3.org/2000/svg">
<path d="M75.1175 0.905518H16.1645C7.2265 0.905518 0 7.96144 0 16.6885V72.0218C0 80.7489 7.2265 87.8048 16.1645 87.8048H75.1175C84.0555 87.8048 91.282 80.7489 91.282 72.0218V16.6885C91.282 7.96144 84.0555 0.905518 75.1175 0.905518ZM47.5427 62.1807H39.5936C39.3273 62.2215 39.0611 62.0321 38.985 61.7722L35.8662 52.8966H21.7175L18.8269 61.6608C18.7509 61.995 18.4466 62.2178 18.1043 62.1807H10.9538C10.5355 62.1807 10.4214 61.9579 10.5355 61.5122L22.7825 27.1981C22.8966 26.8268 23.0107 26.4183 23.1628 25.9726C23.353 25.1928 23.4671 24.4129 23.4671 23.5959C23.4291 23.4102 23.5812 23.2245 23.7714 23.1874H33.6222C33.8885 23.1874 34.0786 23.2988 34.1167 23.4845L47.9231 61.5902C48.0372 61.995 47.9231 62.1807 47.5427 62.1807ZM77.0192 62.2215H70.4735C70.3251 62.2346 70.1762 62.2023 70.0475 62.1291C69.9187 62.0559 69.8164 61.9455 69.7547 61.813C69.6786 61.5159 69.6026 61.178 69.5227 60.8846C69.4466 60.6247 69.4466 60.3647 69.4466 60.1047C68.2295 61.178 66.7462 61.9616 65.1488 62.4035C63.7795 62.7786 62.338 62.9605 60.927 62.9605C59.5235 62.9605 58.1124 62.7749 56.7812 62.3292C55.5478 61.9188 54.4372 61.2171 53.5483 60.2867C52.5594 59.2469 51.8368 58.0214 51.4146 56.6845C50.8791 54.9766 50.6237 53.1969 50.6577 51.4111V32.9914C50.6481 32.935 50.6504 32.8773 50.6646 32.8219C50.6788 32.7664 50.7045 32.7145 50.7402 32.6692C50.7759 32.6239 50.8208 32.5862 50.872 32.5586C50.9233 32.531 50.9798 32.514 51.0381 32.5086H58.4129C58.6449 32.4715 58.8731 32.62 58.9111 32.88V50.4493C58.9111 52.0796 59.2915 53.3793 60.0103 54.3077C60.7368 55.2362 62.2163 55.7226 63.9317 55.7226C64.8026 55.7226 65.6774 55.5704 66.518 55.2733C67.3928 54.9762 68.1877 54.5714 68.9141 54.0478V32.9171C68.9141 32.6572 69.1043 32.5086 69.4466 32.5086H76.7111C76.9051 32.4715 77.1257 32.6201 77.1257 32.8057V55.6818C77.1257 56.6882 77.1257 57.5795 77.1676 58.3556C77.2056 59.1392 77.2474 59.8076 77.2817 60.4018C77.3577 60.996 77.392 61.3302 77.43 61.735C77.4756 62.0693 77.3235 62.2215 77.0192 62.2215ZM31.6825 39.6388C31.3021 38.4876 30.9598 37.3735 30.5795 36.2223C30.1991 35.0711 29.8568 33.9941 29.5526 32.9171C29.2483 31.8773 28.982 30.9118 28.7158 30.0205H28.6397C28.2974 31.6174 27.8791 33.2142 27.3466 34.8111C26.7761 36.5937 26.2056 38.4505 25.597 40.3073C25.1026 42.2013 24.494 43.9467 23.9235 45.5064H33.5842C33.356 44.7265 33.0517 43.7981 32.7094 42.8326C32.3671 41.8299 32.0248 40.7529 31.6825 39.6388Z" fill="#16BDCA"/>
</svg>
