<svg width="91" height="90" viewBox="0 0 91 90" fill="none" xmlns="http://www.w3.org/2000/svg">
<path d="M36.2466 40.4726V26.7727H46.3703C51.9043 26.7727 55.1405 29.3105 55.1405 33.6421C55.1405 38.0958 51.7052 40.4726 45.1077 40.4726H36.2466ZM36.2466 61.3639H47.0415C53.7755 61.3639 57.3358 58.6984 57.3358 53.7171C57.3358 48.8025 53.639 46.2313 46.6092 46.2313H36.2466V61.3639Z" fill="#16BDCA"/>
<path d="M22.75 0.905518C16.7163 0.905518 10.9298 3.24581 6.66332 7.41156C2.39687 11.5773 0 17.2273 0 23.1185V67.5446C0 73.4359 2.39687 79.0858 6.66332 83.2516C10.9298 87.4173 16.7163 89.7576 22.75 89.7576H68.25C74.2837 89.7576 80.0702 87.4173 84.3367 83.2516C88.6031 79.0858 91 73.4359 91 67.5446V23.1185C91 17.2273 88.6031 11.5773 84.3367 7.41156C80.0702 3.24581 74.2837 0.905518 68.25 0.905518L22.75 0.905518ZM28.7787 67.5446V20.5918H48.1106C57.1366 20.5918 62.5739 25.0844 62.5739 32.3092C62.5739 37.2183 58.877 41.6109 54.1393 42.3939V42.9492C60.6401 43.599 64.9683 48.1193 64.9683 54.239C64.9683 62.5022 58.8031 67.5446 48.5428 67.5446H28.7787Z" fill="#16BDCA"/>
</svg>
