<svg width="23" height="30" viewBox="0 0 23 30" fill="none" xmlns="http://www.w3.org/2000/svg">
<path d="M20.1015 10.9925C21.0288 10.192 21.6787 9.14444 21.966 7.98754C22.2533 6.83064 22.1644 5.61848 21.7112 4.51029C21.2579 3.4021 20.4614 2.44973 19.4262 1.77829C18.3911 1.10685 17.1658 0.747752 15.9113 0.748169H6.7199C5.4654 0.747752 4.2401 1.10685 3.20498 1.77829C2.16986 2.44973 1.37334 3.4021 0.920062 4.51029C0.466782 5.61848 0.377946 6.83064 0.665224 7.98754C0.952502 9.14444 1.60246 10.192 2.5297 10.9925C1.89029 11.5445 1.37951 12.2168 1.03002 12.9665C0.680521 13.7162 0.500002 14.5267 0.500002 15.3463C0.500002 16.1658 0.680521 16.9764 1.03002 17.7261C1.37951 18.4758 1.89029 19.1481 2.5297 19.7001C1.7654 20.3606 1.18713 21.1913 0.847276 22.117C0.507426 23.0426 0.41674 24.034 0.583434 25.0012C0.750128 25.9685 1.16893 26.881 1.80191 27.6562C2.43488 28.4314 3.26201 29.0447 4.20836 29.4406C5.15471 29.8365 6.19037 30.0024 7.2215 29.9233C8.25263 29.8443 9.24665 29.5227 10.1135 28.9878C10.9803 28.4529 11.6926 27.7216 12.1857 26.86C12.6788 25.9985 12.9373 25.034 12.9376 24.0539V20.5197C13.8483 20.9945 14.8718 21.2413 15.9113 21.2368C17.1658 21.2372 18.3911 20.8781 19.4262 20.2066C20.4614 19.5352 21.2579 18.5828 21.7112 17.4746C22.1644 16.3665 22.2533 15.1543 21.966 13.9974C21.6787 12.8405 21.0288 11.793 20.1015 10.9925ZM18.885 6.63864C18.8815 7.38477 18.567 8.09937 18.0101 8.62697C17.4532 9.15456 16.6989 9.45245 15.9113 9.45582H12.9376V3.82146H15.9113C16.6989 3.82483 17.4532 4.12272 18.0101 4.65031C18.567 5.17791 18.8815 5.89252 18.885 6.63864ZM3.74621 6.63864C3.74977 5.89252 4.06421 5.17791 4.62111 4.65031C5.17802 4.12272 5.93233 3.82483 6.7199 3.82146H9.6936V9.45582H6.7199C5.93233 9.45245 5.17802 9.15456 4.62111 8.62697C4.06421 8.09937 3.74977 7.38477 3.74621 6.63864ZM3.74621 15.3463C3.74977 14.6002 4.06421 13.8856 4.62111 13.358C5.17802 12.8304 5.93233 12.5325 6.7199 12.5291H9.6936V18.1635H6.7199C5.93233 18.1601 5.17802 17.8622 4.62111 17.3346C4.06421 16.807 3.74977 16.0924 3.74621 15.3463ZM9.6936 24.0539C9.6936 24.6111 9.51919 25.1558 9.19244 25.6191C8.86569 26.0824 8.40126 26.4435 7.85789 26.6567C7.31452 26.8699 6.71661 26.9257 6.13977 26.817C5.56293 26.7083 5.03306 26.44 4.61719 26.046C4.20131 25.652 3.91809 25.15 3.80335 24.6036C3.68861 24.0571 3.7475 23.4906 3.97257 22.9759C4.19764 22.4611 4.57879 22.0211 5.06781 21.7115C5.55683 21.402 6.13176 21.2368 6.7199 21.2368H9.6936V24.0539ZM15.9113 18.1635C15.1226 18.1635 14.3663 17.8667 13.8086 17.3383C13.2509 16.81 12.9376 16.0935 12.9376 15.3463C12.9376 14.5991 13.2509 13.8826 13.8086 13.3542C14.3663 12.8259 15.1226 12.5291 15.9113 12.5291C16.7 12.5291 17.4564 12.8259 18.014 13.3542C18.5717 13.8826 18.885 14.5991 18.885 15.3463C18.885 16.0935 18.5717 16.81 18.014 17.3383C17.4564 17.8667 16.7 18.1635 15.9113 18.1635Z" fill="#083040"/>
</svg>
