<svg width="90" height="90" viewBox="0 0 90 90" fill="none" xmlns="http://www.w3.org/2000/svg">
<path d="M45 9L45 57M45 57V69C45 71.3734 44.2962 73.6934 42.9776 75.6668C41.6591 77.6402 39.7849 79.1783 37.5922 80.0866C35.3995 80.9948 32.9867 81.2324 30.6589 80.7694C28.3311 80.3064 26.193 79.1635 24.5147 77.4853C22.8365 75.807 21.6936 73.6689 21.2306 71.3411C20.7676 69.0133 21.0052 66.6005 21.9135 64.4078C22.8217 62.2151 24.3598 60.3409 26.3332 59.0224C28.3066 57.7038 30.6266 57 33 57M45 57H33M33 57C29.8174 57 26.7652 55.7357 24.5147 53.4853C22.2643 51.2348 21 48.1826 21 45C21 41.8174 22.2643 38.7652 24.5147 36.5147C26.7652 34.2643 29.8174 33 33 33M33 33H45M33 33H57M33 33C29.8174 33 26.7652 31.7357 24.5147 29.4853C22.2643 27.2348 21 24.1826 21 21C21 17.8174 22.2643 14.7652 24.5147 12.5147C26.7652 10.2643 29.8174 9 33 9H57C60.1826 9 63.2349 10.2643 65.4853 12.5147C67.7357 14.7652 69 17.8174 69 21C69 24.1826 67.7357 27.2348 65.4853 29.4853C63.2349 31.7357 60.1826 33 57 33M57 33C60.1826 33 63.2349 34.2643 65.4853 36.5147C67.7357 38.7652 69 41.8174 69 45C69 48.1826 67.7357 51.2348 65.4853 53.4853C63.2349 55.7357 60.1826 57 57 57C53.8174 57 50.7652 55.7357 48.5147 53.4853C46.2643 51.2348 45 48.1826 45 45C45 41.8174 46.2643 38.7652 48.5147 36.5147C50.7652 34.2643 53.8174 33 57 33Z" stroke="#16BDCA" stroke-width="6"/>
</svg>
