<svg width="37" height="36" viewBox="0 0 37 36" fill="none" xmlns="http://www.w3.org/2000/svg">
<g clip-path="url(#clip0_715_119)">
<path d="M18.5 0.00939941C8.555 0.00939941 0.5 8.0644 0.5 18.0094C0.5 25.9744 5.6525 32.7019 12.8075 35.0869C13.7075 35.2444 14.045 34.7044 14.045 34.2319C14.045 33.8044 14.0225 32.3869 14.0225 30.8794C9.5 31.7119 8.33 29.7769 7.97 28.7644C7.7675 28.2469 6.89 26.6494 6.125 26.2219C5.495 25.8844 4.595 25.0519 6.1025 25.0294C7.52 25.0069 8.5325 26.3344 8.87 26.8744C10.49 29.5969 13.0775 28.8319 14.1125 28.3594C14.27 27.1894 14.7425 26.4019 15.26 25.9519C11.255 25.5019 7.07 23.9494 7.07 17.0644C7.07 15.1069 7.7675 13.4869 8.915 12.2269C8.735 11.7769 8.105 9.9319 9.095 7.4569C9.095 7.4569 10.6025 6.9844 14.045 9.3019C15.485 8.8969 17.015 8.6944 18.545 8.6944C20.075 8.6944 21.605 8.8969 23.045 9.3019C26.4875 6.9619 27.995 7.4569 27.995 7.4569C28.985 9.9319 28.355 11.7769 28.175 12.2269C29.3225 13.4869 30.02 15.0844 30.02 17.0644C30.02 23.9719 25.8125 25.5019 21.8075 25.9519C22.46 26.5144 23.0225 27.5944 23.0225 29.2819C23.0225 31.6894 23 33.6244 23 34.2319C23 34.7044 23.3375 35.2669 24.2375 35.0869C27.8114 33.8815 30.917 31.5852 33.1169 28.5215C35.3168 25.4578 36.5 21.7811 36.5 18.0094C36.5 8.0644 28.445 0.00939941 18.5 0.00939941Z" fill="#083040"/>
</g>
<defs>
<clipPath id="clip0_715_119">
<rect width="36" height="36" fill="white" transform="translate(0.5 0.00939941)"/>
</clipPath>
</defs>
</svg>
