<svg width="34" height="29" viewBox="0 0 34 29" fill="none" xmlns="http://www.w3.org/2000/svg">
<path d="M16.7684 11.9677C18.3272 11.9677 19.5984 13.172 19.5984 14.6774C19.5984 16.1111 18.3272 17.3297 16.7684 17.3297C15.2097 17.3297 13.9385 16.1111 13.9385 14.6774C13.9385 13.172 15.2097 11.9677 16.7684 11.9677ZM9.76166 26.1469C10.7151 26.6918 12.8035 25.8602 15.2097 23.7097C14.4228 22.8638 13.651 21.9462 12.9246 20.9857C11.705 20.8751 10.4926 20.7028 9.29253 20.4695C8.52072 23.5376 8.80826 25.6452 9.76166 26.1469ZM10.8361 17.9175L10.3973 17.1864C10.2308 17.6021 10.0643 18.0179 9.9584 18.4193C10.367 18.5054 10.821 18.577 11.2901 18.6487L10.8361 17.9175ZM20.7334 16.8279L21.9592 14.6774L20.7334 12.5269C20.2794 11.767 19.7951 11.0932 19.3563 10.4193C18.5391 10.3763 17.6764 10.3763 16.7684 10.3763C15.8604 10.3763 14.9978 10.3763 14.1806 10.4193C13.7418 11.0932 13.2575 11.767 12.8035 12.5269L11.5777 14.6774L12.8035 16.8279C13.2575 17.5878 13.7418 18.2616 14.1806 18.9355C14.9978 18.9785 15.8604 18.9785 16.7684 18.9785C17.6764 18.9785 18.5391 18.9785 19.3563 18.9355C19.7951 18.2616 20.2794 17.5878 20.7334 16.8279ZM16.7684 7.19352C16.4809 7.50894 16.1782 7.83869 15.8756 8.22578H17.6613C17.3586 7.83869 17.056 7.50894 16.7684 7.19352ZM16.7684 22.1613C17.056 21.8459 17.3586 21.5161 17.6613 21.129H15.8756C16.1782 21.5161 16.4809 21.8459 16.7684 22.1613ZM23.7601 3.20786C22.8218 2.66305 20.7334 3.49459 18.3272 5.64513C19.1141 6.49101 19.8859 7.40858 20.6123 8.36915C21.8533 8.48385 23.0791 8.65589 24.2444 8.88528C25.0162 5.81718 24.7286 3.70965 23.7601 3.20786ZM22.7007 11.4373L23.1396 12.1684C23.3061 11.7527 23.4726 11.3369 23.5785 10.9355C23.1699 10.8494 22.7159 10.7778 22.2467 10.7061L22.7007 11.4373ZM24.8951 1.32972C27.1197 2.53402 27.3618 5.70248 26.4236 9.40141C30.2675 10.4767 33.0369 12.2545 33.0369 14.6774C33.0369 17.1003 30.2675 18.8781 26.4236 19.9534C27.3618 23.6523 27.1197 26.8208 24.8951 28.0251C22.6856 29.2294 19.6741 27.853 16.7684 25.2294C13.8628 27.853 10.8513 29.2294 8.62665 28.0251C6.41717 26.8208 6.17504 23.6523 7.11331 19.9534C3.26942 18.8781 0.5 17.1003 0.5 14.6774C0.5 12.2545 3.26942 10.4767 7.11331 9.40141C6.17504 5.70248 6.41717 2.53402 8.62665 1.32972C10.8513 0.125415 13.8628 1.50176 16.7684 4.12542C19.6741 1.50176 22.6856 0.125415 24.8951 1.32972ZM24.4562 14.6774C24.9708 15.7527 25.4248 16.8279 25.8031 17.9175C28.9811 17.0143 30.7669 15.724 30.7669 14.6774C30.7669 13.6308 28.9811 12.3405 25.8031 11.4373C25.4248 12.5269 24.9708 13.6021 24.4562 14.6774ZM9.08066 14.6774C8.56612 13.6021 8.11212 12.5269 7.73378 11.4373C4.55576 12.3405 2.77002 13.6308 2.77002 14.6774C2.77002 15.724 4.55576 17.0143 7.73378 17.9175C8.11212 16.8279 8.56612 15.7527 9.08066 14.6774ZM22.7007 17.9175L22.2467 18.6487C22.7159 18.577 23.1699 18.5054 23.5785 18.4193C23.4726 18.0179 23.3061 17.6021 23.1396 17.1864L22.7007 17.9175ZM18.3272 23.7097C20.7334 25.8602 22.8218 26.6918 23.7601 26.1469C24.7286 25.6452 25.0162 23.5376 24.2444 20.4695C23.0791 20.6989 21.8533 20.871 20.6123 20.9857C19.8859 21.9462 19.1141 22.8638 18.3272 23.7097ZM10.8361 11.4373L11.2901 10.7061C10.821 10.7778 10.367 10.8494 9.9584 10.9355C10.0643 11.3369 10.2308 11.7527 10.3973 12.1684L10.8361 11.4373ZM15.2097 5.64513C12.8035 3.49459 10.7151 2.66305 9.76166 3.20786C8.80826 3.70965 8.52072 5.81718 9.29253 8.88528C10.4926 8.65201 11.705 8.47972 12.9246 8.36915C13.651 7.40858 14.4228 6.49101 15.2097 5.64513Z" fill="#083040"/>
</svg>
