<svg width="67" height="88" viewBox="0 0 67 88" fill="none" xmlns="http://www.w3.org/2000/svg">
<path d="M16.6948 0.92926H26.2549V4.83249H20.6924V8.73572H26.2549V12.639H16.6948V0.92926ZM28.1647 0.92926H37.7285V4.32558H32.166V5.00267H37.7285V12.8091H28.1647V9.24625H33.7272V8.56554H28.1647V0.92926ZM39.642 0.92926H49.1984V4.32558H43.6359V5.00267H49.1984V12.8091H39.642V9.24625H45.2045V8.56554H39.642V0.92926Z" fill="#0A192F"/>
<path fill-rule="evenodd" clip-rule="evenodd" d="M33.3417 87.8285L7.59096 80.8476L0 18.0085H66.7501L59.1628 80.8404L33.3417 87.8285ZM15.0076 46.4535L15.7159 54.1586H43.0723L42.1564 64.1521L33.3528 66.4766H33.3454L24.5566 64.1593L23.9929 58.0148H16.0682L17.1733 70.1155L33.3417 74.4967L49.536 70.1155L51.5088 48.521L51.7016 46.4535L53.1256 30.8515H13.5873L14.3068 38.5602H44.4778L43.7584 46.4535H15.0076Z" fill="#0A192F"/>
</svg>
