<svg width="57" height="67" viewBox="0 0 57 67" fill="none" xmlns="http://www.w3.org/2000/svg">
<mask id="mask0_590_113" style="mask-type:luminance" maskUnits="userSpaceOnUse" x="0" y="0" width="57" height="67">
<path d="M51.6468 2.59863H5.35323C4.88642 2.59869 4.42477 2.6939 3.99781 2.87817C3.57085 3.06244 3.18799 3.33171 2.87374 3.66875C2.55948 4.00579 2.32076 4.40318 2.17283 4.83548C2.02491 5.26778 1.97104 5.72548 2.01469 6.17927L6.52197 53.1123C6.57656 53.6835 6.78389 54.2307 7.1232 54.6991C7.46251 55.1674 7.92189 55.5405 8.45534 55.781L27.0948 64.1801C27.5354 64.3786 28.0148 64.4814 28.5 64.4814C28.9852 64.4814 29.4646 64.3786 29.9052 64.1801L48.5447 55.781C49.0784 55.5408 49.5381 55.1678 49.8778 54.6994C50.2174 54.231 50.425 53.6837 50.4797 53.1123L54.9853 6.17927C55.029 5.72548 54.9751 5.26778 54.8272 4.83548C54.6793 4.40318 54.4405 4.00579 54.1263 3.66875C53.812 3.33171 53.4292 3.06244 53.0022 2.87817C52.5752 2.6939 52.1136 2.59869 51.6468 2.59863Z" fill="white" stroke="white" stroke-width="4"/>
<path d="M41.9145 14.0593H15.0854L16.7623 28.7945H40.2377L38.5609 46.8041L28.5 51.7158L18.4391 46.8041L17.6007 38.6179" stroke="black" stroke-width="4" stroke-linecap="round" stroke-linejoin="round"/>
</mask>
<g mask="url(#mask0_590_113)">
<path d="M-11.7437 -5.58765H68.7435V72.9998H-11.7437V-5.58765Z" fill="#16BDCA"/>
</g>
</svg>
