<svg width="57" height="67" viewBox="0 0 57 67" fill="none" xmlns="http://www.w3.org/2000/svg">
<mask id="mask0_427_668" style="mask-type:luminance" maskUnits="userSpaceOnUse" x="0" y="0" width="57" height="67">
<path d="M51.6468 2.59869H5.35323C4.88642 2.59875 4.42477 2.69396 3.99781 2.87823C3.57085 3.0625 3.18799 3.33177 2.87374 3.66881C2.55948 4.00585 2.32076 4.40324 2.17283 4.83554C2.02491 5.26784 1.97104 5.72554 2.01469 6.17933L6.52197 53.1124C6.57656 53.6836 6.78389 54.2308 7.1232 54.6991C7.46251 55.1675 7.92189 55.5406 8.45534 55.7811L27.0948 64.1801C27.5354 64.3786 28.0148 64.4814 28.5 64.4814C28.9852 64.4814 29.4646 64.3786 29.9052 64.1801L48.5447 55.7811C49.0784 55.5408 49.5382 55.1678 49.8778 54.6994C50.2174 54.2311 50.425 53.6838 50.4797 53.1124L54.9853 6.17933C55.029 5.72554 54.9751 5.26784 54.8272 4.83554C54.6793 4.40324 54.4405 4.00585 54.1263 3.66881C53.812 3.33177 53.4292 3.0625 53.0022 2.87823C52.5752 2.69396 52.1136 2.59875 51.6468 2.59869Z" fill="white" stroke="white" stroke-width="4"/>
<path d="M41.9145 14.0594H15.0854L16.7623 28.7945H40.2377L38.5609 46.8041L28.5 51.7159L18.4391 46.8041L17.6007 38.618" stroke="black" stroke-width="4" stroke-linecap="round" stroke-linejoin="round"/>
</mask>
<g mask="url(#mask0_427_668)">
<path d="M-11.7437 -5.58746H68.7435V72.9999H-11.7437V-5.58746Z" fill="#0A192F"/>
</g>
</svg>
