<svg width="31" height="39" viewBox="0 0 31 39" fill="none" xmlns="http://www.w3.org/2000/svg">
<path d="M8.02417 0.0113525H12.3328V1.71818H9.82582V3.42501H12.3328V5.13183H8.02417V0.0113525ZM13.1935 0.0113525H17.5037V1.49651H14.9968V1.7926H17.5037V5.20625H13.1935V3.64826H15.7004V3.35059H13.1935V0.0113525ZM18.3661 0.0113525H22.673V1.49651H20.1661V1.7926H22.673V5.20625H18.3661V3.64826H20.8731V3.35059H18.3661V0.0113525Z" fill="#083040"/>
<path fill-rule="evenodd" clip-rule="evenodd" d="M15.5266 38.0113L3.92113 34.9586L0.5 7.47998H30.5832L27.1638 34.9555L15.5266 38.0113ZM7.26371 19.9186L7.58293 23.2879H19.912L19.4992 27.6579L15.5316 28.6744H15.5282L11.5673 27.6611L11.3133 24.9742H7.7417L8.23975 30.2656L15.5266 32.1815L22.8251 30.2656L23.7142 20.8227L23.8011 19.9186L24.4429 13.096H6.62361L6.94784 16.4669H20.5455L20.2212 19.9186H7.26371Z" fill="#083040"/>
</svg>
