<svg width="31" height="35" viewBox="0 0 31 35" fill="none" xmlns="http://www.w3.org/2000/svg">
<mask id="mask0_715_82" style="mask-type:luminance" maskUnits="userSpaceOnUse" x="0" y="0" width="31" height="35">
<path d="M27.2328 2.72144H4.1705C3.93795 2.72146 3.70796 2.76748 3.49526 2.85655C3.28256 2.94562 3.09183 3.07578 2.93527 3.23869C2.77872 3.40161 2.65979 3.59369 2.5861 3.80265C2.51241 4.01161 2.48558 4.23284 2.50732 4.45219L4.75274 27.138C4.77993 27.4141 4.88322 27.6786 5.05226 27.905C5.22129 28.1314 5.45014 28.3117 5.7159 28.4279L15.0016 32.4877C15.2211 32.5837 15.4599 32.6334 15.7017 32.6334C15.9434 32.6334 16.1822 32.5837 16.4017 32.4877L25.6874 28.4279C25.9533 28.3118 26.1824 28.1315 26.3515 27.9051C26.5207 27.6787 26.6241 27.4142 26.6514 27.138L28.896 4.45219C28.9177 4.23284 28.8909 4.01161 28.8172 3.80265C28.7435 3.59369 28.6246 3.40161 28.468 3.23869C28.3115 3.07578 28.1208 2.94562 27.9081 2.85655C27.6954 2.76748 27.4654 2.72146 27.2328 2.72144Z" fill="white" stroke="white" stroke-width="4"/>
<path d="M22.3844 8.26111H9.0188L9.85415 15.3836H21.549L20.7137 24.0888L15.7016 26.4629L10.6895 24.0888L10.2718 20.1319" stroke="black" stroke-width="4" stroke-linecap="round" stroke-linejoin="round"/>
</mask>
<g mask="url(#mask0_715_82)">
<path d="M-4.34668 -1.2356H35.7501V36.7508H-4.34668V-1.2356Z" fill="#083040"/>
</g>
</svg>
