<svg width="67" height="88" viewBox="0 0 67 88" fill="none" xmlns="http://www.w3.org/2000/svg">
<path d="M16.6948 0.929199H26.2549V4.83243H20.6924V8.73566H26.2549V12.6389H16.6948V0.929199ZM28.1647 0.929199H37.7285V4.32552H32.166V5.00261H37.7285V12.8091H28.1647V9.24619H33.7272V8.56548H28.1647V0.929199ZM39.642 0.929199H49.1984V4.32552H43.6359V5.00261H49.1984V12.8091H39.642V9.24619H45.2045V8.56548H39.642V0.929199Z" fill="#16BDCA"/>
<path fill-rule="evenodd" clip-rule="evenodd" d="M33.3417 87.8286L7.59096 80.8477L0 18.0085H66.7501L59.1628 80.8404L33.3417 87.8286ZM15.0076 46.4536L15.7159 54.1587H43.0723L42.1564 64.1521L33.3528 66.4767H33.3454L24.5566 64.1594L23.9929 58.0148H16.0682L17.1733 70.1156L33.3417 74.4968L49.536 70.1156L51.5088 48.5211L51.7016 46.4536L53.1256 30.8515H13.5873L14.3068 38.5602H44.4778L43.7584 46.4536H15.0076Z" fill="#16BDCA"/>
</svg>
