<svg width="37" height="35" viewBox="0 0 37 35" fill="none" xmlns="http://www.w3.org/2000/svg">
<path d="M15.5516 14.6213L14.4177 18.0504H18.19L17.0343 14.6213C16.8044 13.9358 16.6042 13.1828 16.4198 12.4936C16.3779 12.3351 16.3356 12.1767 16.293 12.0184H16.2493C16.174 12.2945 16.1007 12.5893 16.0234 12.8917C15.8767 13.4738 15.724 14.0785 15.5516 14.6213Z" fill="#083040"/>
<path fill-rule="evenodd" clip-rule="evenodd" d="M8.35418 0.596756C15.2446 -0.126816 22.1983 -0.126816 29.0888 0.596756C32.8531 0.99488 35.888 3.80241 36.33 7.38177C37.1471 14.0009 37.1471 20.6877 36.33 27.3068C35.888 30.8861 32.8531 33.6937 29.0908 34.0937C22.1997 34.8174 15.2453 34.8174 8.35418 34.0937C4.58984 33.6937 1.55498 30.8861 1.11293 27.3086C0.295691 20.6889 0.295691 14.0015 1.11293 7.38177C1.55498 3.80241 4.58984 0.99488 8.35418 0.596756ZM26.5158 13.8569V23.9171H23.812V13.8569H26.5158ZM23.6613 11.0475C23.6613 10.2625 24.2699 9.66347 25.1639 9.66347C26.0817 9.66347 26.6466 10.2625 26.6704 11.0475C26.6704 11.8118 26.0797 12.4109 25.1441 12.4109C24.25 12.4109 23.6613 11.8118 23.6613 11.0475ZM19.9763 23.9171L18.6462 19.9715H13.9819L12.7172 23.9171H9.94793L14.6578 9.99399H18.0812L22.8565 23.9171H19.9763Z" fill="#083040"/>
</svg>
