<svg width="92" height="90" viewBox="0 0 92 90" fill="none" xmlns="http://www.w3.org/2000/svg">
<path d="M37.6496 37.5539L34.8135 46.3941H44.2492L41.3585 37.5539C40.7833 35.7868 40.2825 33.8454 39.8214 32.0687C39.7165 31.6602 39.6107 31.2519 39.5041 30.8438H39.395C39.2066 31.5555 39.0231 32.3156 38.8297 33.095C38.4628 34.5958 38.081 36.1547 37.6496 37.5539Z" fill="#0A192F"/>
<path fill-rule="evenodd" clip-rule="evenodd" d="M19.6459 1.39901C36.8812 -0.466338 54.2748 -0.466338 71.5101 1.39901C80.926 2.42537 88.5172 9.66311 89.6229 18.8906C91.6668 35.9545 91.6668 53.1929 89.6229 70.2568C88.5172 79.4844 80.926 86.7221 71.5151 87.7533C54.2782 89.6192 36.8828 89.6192 19.6459 87.7533C10.2301 86.7221 2.63885 79.4844 1.53314 70.2617C-0.511046 53.1962 -0.511046 35.9562 1.53314 18.8906C2.63885 9.66311 10.2301 2.42537 19.6459 1.39901ZM65.0742 35.5834V61.5183H58.311V35.5834H65.0742ZM57.9342 28.3409C57.9342 26.3172 59.4564 24.7728 61.6926 24.7728C63.9883 24.7728 65.4014 26.3172 65.4609 28.3409C65.4609 30.3113 63.9833 31.8556 61.643 31.8556C59.4068 31.8556 57.9342 30.3113 57.9342 28.3409ZM48.7166 61.5183L45.3896 51.3467H33.7226L30.5592 61.5183H23.6324L35.4134 25.6249H43.9765L55.9211 61.5183H48.7166Z" fill="#0A192F"/>
</svg>
