<svg width="91" height="90" viewBox="0 0 91 90" fill="none" xmlns="http://www.w3.org/2000/svg">
<path fill-rule="evenodd" clip-rule="evenodd" d="M19.6123 2.32582C36.8182 0.463659 54.182 0.463659 71.3879 2.32582C80.7876 3.35042 88.3659 10.5758 89.4697 19.7875C91.5101 36.8223 91.5101 54.0312 89.4697 71.066C88.3659 80.2777 80.7877 87.5031 71.3928 88.5325C54.1854 90.3952 36.8198 90.3952 19.6123 88.5325C10.2126 87.5031 2.63433 80.2777 1.53052 71.0708C-0.510172 54.0344 -0.510172 36.8239 1.53052 19.7875C2.63433 10.5758 10.2126 3.35042 19.6123 2.32582ZM49.1036 62.3423H27.3242V26.5103H34.0214V56.8665H49.1036V62.3423ZM58.4242 62.3423H51.727V44.7985C51.727 41.2897 51.6726 38.791 51.5092 36.4518H57.3352L57.553 41.396H57.7708C59.0776 37.7277 62.1762 35.867 65.0125 35.867C65.6658 35.867 66.047 35.9202 66.5915 36.0265V42.1935C65.9476 42.055 65.2906 41.9837 64.6313 41.9808C61.4139 41.9808 59.236 44.001 58.642 46.925C58.507 47.5906 58.4341 48.2667 58.4242 48.9452V62.3423Z" fill="#16BDCA"/>
</svg>
