<svg width="91" height="90" viewBox="0 0 91 90" fill="none" xmlns="http://www.w3.org/2000/svg">
<path fill-rule="evenodd" clip-rule="evenodd" d="M19.6124 2.32588C36.8182 0.46372 54.182 0.46372 71.3879 2.32588C80.7877 3.35048 88.3659 10.5759 89.4697 19.7876C91.5101 36.8224 91.5101 54.0313 89.4697 71.066C88.3659 80.2778 80.7877 87.5031 71.3928 88.5326C54.1854 90.3952 36.8198 90.3952 19.6124 88.5326C10.2126 87.5031 2.63434 80.2778 1.53052 71.0708C-0.510172 54.0345 -0.510172 36.824 1.53052 19.7876C2.63434 10.5759 10.2126 3.35048 19.6124 2.32588ZM49.1036 62.3424H27.3242V26.5103H34.0214V56.8666H49.1036V62.3424ZM58.4242 62.3424H51.727V44.7985C51.727 41.2897 51.6726 38.7911 51.5092 36.4519H57.3352L57.553 41.3961H57.7708C59.0776 37.7278 62.1762 35.8671 65.0125 35.8671C65.6658 35.8671 66.047 35.9202 66.5915 36.0266V42.1935C65.9476 42.0551 65.2906 41.9838 64.6313 41.9809C61.4139 41.9809 59.236 44.0011 58.642 46.925C58.507 47.5906 58.4341 48.2668 58.4242 48.9453V62.3424Z" fill="#0A192F"/>
</svg>
