<svg width="85" height="44" viewBox="0 0 85 44" fill="none" xmlns="http://www.w3.org/2000/svg">
<g clip-path="url(#clip0_723_2)">
<path d="M62.4999 0.427897C47.0914 0.33511 35.8893 39.9031 40.9965 43.3691C43.9173 45.3505 50.4762 34.3726 62.8015 34.5581C74.7208 34.7379 80.7365 45.1823 83.5588 43.3072C88.6292 39.9398 77.8543 0.522618 62.4999 0.427897ZM72.983 32.4627C69.9654 30.2609 66.1457 28.6043 62.5811 28.6662C58.4579 28.7377 54.6536 30.0676 51.6148 32.3757C50.9846 32.8532 50.0838 32.3757 50.1438 31.5851C51.1915 17.9473 57.6305 8.98366 62.4091 9.00879C67.1857 9.03585 73.5049 18.0652 74.4386 31.6624C74.4907 32.4395 73.6131 32.9189 72.983 32.4588V32.4627Z" fill="#083040"/>
<path d="M37.9268 31.7629C37.9268 34.3668 37.3275 36.5512 36.131 38.316C34.9344 40.079 33.3493 41.4032 31.3756 42.2846C29.4 43.1661 27.1963 43.6069 24.7607 43.6069H3.22242C3.56071 43.1217 3.75788 42.534 3.75788 41.9C3.75788 40.2472 2.41827 38.9095 0.767428 38.9095C0.502598 38.9095 0.2455 38.9443 0 39.0081V25.2543H9.38698V35.9229H22.932C24.4842 35.9229 25.7562 35.4802 26.7421 34.5988C27.7299 33.7173 28.2228 32.3525 28.2228 30.5026C28.2228 29.4123 28.0121 28.4671 27.5945 27.6687C27.1731 26.8704 26.543 26.2518 25.704 25.811C24.8651 25.3703 23.7941 25.1499 22.4912 25.1499H10.3129C10.4289 25.061 10.5043 24.9199 10.5043 24.7594V18.2276C10.5043 18.071 10.4328 17.9318 10.3187 17.8429H22.6826C23.8927 17.8429 24.9095 17.6226 25.7388 17.1818C26.5662 16.7411 27.1944 16.1534 27.6197 15.4189C28.043 14.6843 28.2576 13.8337 28.2576 12.8672C28.2576 11.228 27.7763 9.9908 26.8136 9.15185C25.8509 8.31097 24.5867 7.89149 23.019 7.89149H9.38698V17.7347H0V4.01762C0.2455 4.08141 0.502598 4.11621 0.767428 4.11621C2.4202 4.11621 3.75788 2.77659 3.75788 1.12575C3.75788 0.870586 3.72695 0.625086 3.66703 0.389252H24.6949C26.9644 0.389252 29.0115 0.829991 30.8382 1.7134C32.665 2.59488 34.1032 3.83398 35.1528 5.42876C36.2025 7.02354 36.7283 8.89282 36.7283 11.0366C36.7283 12.759 36.4132 14.2919 35.783 15.6354C35.1528 16.9808 34.3023 18.0923 33.2314 18.9757C32.1605 19.8572 30.9542 20.5086 29.6107 20.9281V21.1794C31.2055 21.5158 32.6225 22.1459 33.8635 23.0699C35.1026 23.9959 36.0884 25.1809 36.8249 26.6287C37.5595 28.0785 37.9287 29.7893 37.9287 31.7629H37.9268Z" fill="#083040"/>
</g>
<defs>
<clipPath id="clip0_723_2">
<rect width="84.8269" height="43.2195" fill="white" transform="translate(0 0.389252)"/>
</clipPath>
</defs>
</svg>
