<svg width="50" height="55" viewBox="0 0 50 55" fill="none" xmlns="http://www.w3.org/2000/svg">
<g clip-path="url(#clip0_524_2887)">
<path d="M50 40.9764C50 48.7213 42.8477 54.9982 34.0266 54.9982H5.71966V54.9242H0V44.959H5.71966V9.98991H0V0.026433H5.71966V0H34.0266C42.8477 0 50 6.27872 50 14.0218C50 20.4168 45.1211 25.8145 38.4519 27.4991C45.1211 29.1838 50 34.5814 50 40.9764Z" fill="#F2F3F4"/>
<path d="M15.8074 36.696C14.7066 38.0142 12.9199 38.0142 11.8192 36.696C11.2697 36.037 10.9931 35.1735 10.9931 34.3065C10.9931 33.4395 11.2678 32.5795 11.8192 31.9205L22.8971 18.6564C23.4189 18.0291 24.0937 17.703 24.7741 17.6678C24.8589 17.6643 24.9401 17.6643 25.0249 17.6678C25.7053 17.703 26.3801 18.0291 26.9019 18.6564L37.978 31.9205C39.0807 33.2386 39.0807 35.3779 37.978 36.696C37.4286 37.3551 36.7058 37.6846 35.9848 37.6846C35.2639 37.6846 34.5429 37.3551 33.9916 36.696L24.8977 25.8039L15.8056 36.696H15.8074Z" fill="#16BCCB"/>
</g>
<defs>
<clipPath id="clip0_524_2887">
<rect width="50" height="55" fill="white"/>
</clipPath>
</defs>
</svg>
