<svg width="37" height="35" viewBox="0 0 37 35" fill="none" xmlns="http://www.w3.org/2000/svg">
<path d="M14.3409 11.9254C13.6085 11.9254 13.0915 11.9863 12.8135 12.0473V16.6778C13.1346 16.7591 13.5654 16.7794 14.1059 16.7794C16.0856 16.7794 17.2918 15.8655 17.2918 14.261C17.2918 12.7378 16.1718 11.9254 14.3409 11.9254Z" fill="#083040"/>
<path fill-rule="evenodd" clip-rule="evenodd" d="M8.25873 0.878876C15.0654 0.167491 21.9347 0.167491 28.7414 0.878876C32.4599 1.2703 35.4579 4.03054 35.8946 7.54962C36.7018 14.0573 36.7018 20.6314 35.8946 27.1391C35.4579 30.6581 32.46 33.4184 28.7433 33.8116C21.936 34.5232 15.0661 34.5232 8.25873 33.8116C4.54014 33.4184 1.54215 30.6581 1.10548 27.1409C0.298174 20.6327 0.298174 14.0579 1.10548 7.54962C1.54215 4.03054 4.54014 1.2703 8.25873 0.878876ZM12.8115 23.8065H10.1836V10.3006C11.1314 10.1382 12.4453 10.0163 14.2332 10.0163C16.1718 10.0163 17.5934 10.4022 18.5216 11.1333C19.3832 11.8035 19.9413 12.8799 19.9413 14.1594C19.9413 15.4592 19.5105 16.5357 18.6919 17.2668C17.6365 18.262 15.9779 18.7291 14.1039 18.7291C13.6085 18.7291 13.1562 18.7088 12.8115 18.6478V23.8065ZM23.327 24.0299C22.0542 24.0299 20.9145 23.7252 20.139 23.319L20.656 21.5115C21.2591 21.8567 22.3988 22.2223 23.3485 22.2223C24.5117 22.2223 25.0286 21.7755 25.0286 21.1256C25.0286 20.4554 24.5978 20.1101 23.3054 19.6836C21.2591 19.0134 20.3975 17.9573 20.4191 16.7997C20.4191 15.0531 21.9464 13.6923 24.3824 13.6923C25.5456 13.6923 26.556 13.9767 27.1611 14.2813L26.6441 16.0482C25.9658 15.6888 25.2035 15.4935 24.4255 15.4796C23.4778 15.4796 22.9608 15.9061 22.9608 16.5153C22.9608 17.1449 23.4562 17.4496 24.7917 17.8964C26.6872 18.5463 27.5704 19.4602 27.5919 20.9225C27.5919 22.7097 26.1037 24.0299 23.327 24.0299Z" fill="#083040"/>
</svg>
