<svg width="92" height="90" viewBox="0 0 92 90" fill="none" xmlns="http://www.w3.org/2000/svg">
<path d="M35.123 31.1401C33.2645 31.1401 31.9527 31.2988 31.2471 31.4575V43.5192C32.062 43.7308 33.1552 43.7837 34.5267 43.7837C39.5505 43.7837 42.6115 41.4031 42.6115 37.2238C42.6115 33.2562 39.7691 31.1401 35.123 31.1401Z" fill="#0A192F"/>
<path fill-rule="evenodd" clip-rule="evenodd" d="M19.6887 2.36614C36.9615 0.513126 54.393 0.513126 71.6659 2.36614C81.1023 3.38571 88.71 10.5756 89.8181 19.7421C91.8665 36.6932 91.8665 53.8175 89.8181 70.7686C88.71 79.9351 81.1023 87.125 71.6708 88.1494C54.3964 90.0029 36.9632 90.0029 19.6887 88.1494C10.2523 87.125 2.64459 79.9351 1.53648 70.7734C-0.512159 53.8208 -0.512159 36.6948 1.53648 19.7421C2.64459 10.5756 10.2523 3.38571 19.6887 2.36614ZM31.242 62.0879H24.5734V26.9079C26.9784 26.4847 30.3127 26.1673 34.8496 26.1673C39.769 26.1673 43.3766 27.1724 45.732 29.0769C47.9184 30.8227 49.3346 33.6265 49.3346 36.9593C49.3346 40.3451 48.2414 43.1489 46.1643 45.0534C43.4859 47.6456 39.2771 48.8623 34.5216 48.8623C33.2644 48.8623 32.1165 48.8094 31.242 48.6507V62.0879ZM57.9262 62.6698C54.6963 62.6698 51.8042 61.8763 49.8365 60.8182L51.1483 56.1099C52.6788 57.0093 55.5708 57.9615 57.9809 57.9615C60.9325 57.9615 62.2444 56.7976 62.2444 55.1048C62.2444 53.359 61.1512 52.4597 57.8716 51.3487C52.6788 49.603 50.4924 46.852 50.547 43.8366C50.547 39.287 54.423 35.7426 60.6046 35.7426C63.5562 35.7426 66.1203 36.4832 67.6558 37.2767L66.3439 41.8792C64.6224 40.9431 62.6882 40.4342 60.7139 40.398C58.3088 40.398 56.997 41.5089 56.997 43.096C56.997 44.736 58.2542 45.5295 61.6431 46.6933C66.4533 48.3862 68.6943 50.7668 68.749 54.5758C68.749 59.2311 64.9725 62.6698 57.9262 62.6698Z" fill="#0A192F"/>
</svg>
