<svg width="92" height="90" viewBox="0 0 92 90" fill="none" xmlns="http://www.w3.org/2000/svg">
<path d="M35.1228 31.1399C33.2643 31.1399 31.9524 31.2986 31.2468 31.4573V43.519C32.0618 43.7306 33.155 43.7835 34.5265 43.7835C39.5502 43.7835 42.6112 41.4029 42.6112 37.2236C42.6112 33.256 39.7689 31.1399 35.1228 31.1399Z" fill="#16BDCA"/>
<path fill-rule="evenodd" clip-rule="evenodd" d="M19.6887 2.36608C36.9615 0.513065 54.393 0.513065 71.6659 2.36608C81.1023 3.38565 88.71 10.5755 89.8181 19.742C91.8665 36.6931 91.8665 53.8175 89.8181 70.7686C88.71 79.9351 81.1023 87.1249 71.6708 88.1493C54.3964 90.0028 36.9632 90.0028 19.6887 88.1493C10.2523 87.1249 2.64459 79.9351 1.53648 70.7734C-0.512159 53.8207 -0.512159 36.6947 1.53648 19.742C2.64459 10.5755 10.2523 3.38565 19.6887 2.36608ZM31.242 62.0878H24.5734V26.9079C26.9784 26.4847 30.3127 26.1672 34.8496 26.1672C39.769 26.1672 43.3766 27.1724 45.732 29.0769C47.9184 30.8226 49.3346 33.6264 49.3346 36.9593C49.3346 40.345 48.2414 43.1488 46.1643 45.0533C43.4859 47.6455 39.2771 48.8623 34.5216 48.8623C33.2644 48.8623 32.1165 48.8094 31.242 48.6507V62.0878ZM57.9262 62.6697C54.6963 62.6697 51.8042 61.8762 49.8365 60.8181L51.1483 56.1099C52.6788 57.0092 55.5708 57.9614 57.9809 57.9614C60.9325 57.9614 62.2444 56.7976 62.2444 55.1047C62.2444 53.3589 61.1512 52.4596 57.8716 51.3487C52.6788 49.6029 50.4924 46.852 50.547 43.8366C50.547 39.287 54.423 35.7425 60.6046 35.7425C63.5562 35.7425 66.1203 36.4832 67.6558 37.2767L66.3439 41.8792C64.6224 40.943 62.6882 40.4341 60.7139 40.3979C58.3088 40.3979 56.997 41.5089 56.997 43.0959C56.997 44.7359 58.2542 45.5294 61.6431 46.6933C66.4533 48.3861 68.6943 50.7667 68.749 54.5757C68.749 59.2311 64.9724 62.6697 57.9262 62.6697Z" fill="#16BDCA"/>
</svg>
