<svg width="91" height="90" viewBox="0 0 91 90" fill="none" xmlns="http://www.w3.org/2000/svg">
<path d="M36.3727 31.2891C34.5214 31.2891 33.2147 31.4486 32.5068 31.608V43.7293C33.3236 43.9419 34.4125 43.9951 35.7737 43.9951C40.783 43.9951 43.8321 41.6027 43.8321 37.4028C43.8321 33.4156 41.0008 31.2891 36.3727 31.2891Z" fill="#16BDCA"/>
<path fill-rule="evenodd" clip-rule="evenodd" d="M19.6123 2.37294C36.8182 0.510778 54.182 0.510778 71.3879 2.37294C80.7876 3.39754 88.3659 10.6229 89.4697 19.8347C91.5101 36.8694 91.5101 54.0783 89.4697 71.1131C88.3659 80.3248 80.7877 87.5502 71.3928 88.5796C54.1854 90.4423 36.8198 90.4423 19.6123 88.5796C10.2126 87.5502 2.63433 80.3248 1.53052 71.1179C-0.510172 54.0816 -0.510172 36.871 1.53052 19.8347C2.63433 10.6229 10.2126 3.39754 19.6123 2.37294ZM32.5067 62.3895H25.864V27.0359C28.2598 26.6106 31.5811 26.2916 36.1003 26.2916C41.0007 26.2916 44.5943 27.3017 46.9356 29.2156C49.1135 30.97 50.5292 33.7876 50.5292 37.1369C50.5292 40.5393 49.4402 43.357 47.3712 45.2709C44.6982 47.8759 40.5107 49.0986 35.7736 49.0986C34.5213 49.0986 33.3779 49.0455 32.5067 48.886V62.3895ZM59.8844 62.3895H53.1872V44.8456C53.1872 41.3368 53.1377 38.8381 52.9694 36.4989H58.7954L59.0132 41.4431H59.231C60.5378 37.7749 63.6413 35.9141 66.4727 35.9141C67.126 35.9141 67.5121 35.9673 68.0566 36.0736V42.2406C67.4112 42.1018 66.7524 42.0305 66.0915 42.0279C62.8791 42.0279 60.7011 44.0481 60.1022 46.9721C59.9672 47.6377 59.8943 48.3139 59.8844 48.9923V62.3895Z" fill="#16BDCA"/>
</svg>
