<svg width="91" height="86" viewBox="0 0 91 86" fill="none" xmlns="http://www.w3.org/2000/svg">
<path d="M45.5002 21.5C35.3764 21.5 29.0822 26.2658 26.5418 35.8333C30.3335 31.0675 34.7697 29.2758 39.8127 30.4583C42.6943 31.1392 44.7797 33.11 47.0547 35.2958C50.7706 38.8792 54.9793 43 64.4585 43C74.5822 43 80.8764 38.2342 83.4168 28.6667C79.6252 33.4325 75.1889 35.2242 70.146 34.0417C67.2643 33.3608 65.2168 31.39 62.9039 29.2042C59.1881 25.6208 54.9793 21.5 45.5002 21.5ZM26.5418 43C16.4181 43 10.1239 47.7658 7.5835 57.3333C11.3752 52.5675 15.8114 50.7758 20.8543 51.9583C23.736 52.6392 25.7835 54.61 28.0964 56.7958C31.8122 60.3792 36.021 64.5 45.5002 64.5C55.6239 64.5 61.9181 59.7342 64.4585 50.1667C60.6668 54.9325 56.2306 56.7242 51.1877 55.5417C48.306 54.8608 46.2585 52.89 43.9456 50.7042C40.2297 47.1208 36.021 43 26.5418 43Z" fill="#0A192F"/>
</svg>
