<svg width="41" height="40" viewBox="0 0 41 40" fill="none" xmlns="http://www.w3.org/2000/svg">
<g clip-path="url(#clip0_715_115)">
<path d="M35.7501 0.00939941H5.25757C2.63007 0.00939941 0.505066 2.1344 0.500066 4.7594V35.2344C0.496769 35.8607 0.617364 36.4815 0.854911 37.061C1.09246 37.6405 1.44226 38.1673 1.8842 38.6111C2.32614 39.0549 2.85148 39.4069 3.42999 39.6469C4.0085 39.8869 4.62876 40.0101 5.25507 40.0094H35.7526C36.3782 40.0091 36.9977 39.8852 37.5753 39.6447C38.153 39.4043 38.6774 39.0521 39.1186 38.6084C39.5597 38.1647 39.9089 37.6383 40.1459 37.0592C40.383 36.4802 40.5034 35.8601 40.5001 35.2344V4.7594C40.5001 3.49962 39.9996 2.29144 39.1088 1.40064C38.218 0.509844 37.0098 0.00939941 35.7501 0.00939941ZM18.0001 28.4269C17.9991 28.6359 17.9569 28.8427 17.8759 29.0354C17.795 29.2281 17.6768 29.4029 17.5282 29.5499C17.3796 29.6969 17.2034 29.8131 17.0099 29.892C16.8163 29.9708 16.6091 30.0107 16.4001 30.0094H9.48256C9.06416 30.0074 8.66357 29.8398 8.36841 29.5433C8.07326 29.2467 7.90756 28.8453 7.90757 28.4269V8.9669C7.90757 8.0969 8.61007 7.3894 9.48256 7.3844H16.3951C17.2701 7.3894 17.9751 8.0944 17.9776 8.9669L18.0001 28.4269ZM33.1301 19.6769C33.1301 19.8862 33.0886 20.0934 33.008 20.2866C32.9273 20.4797 32.8092 20.6549 32.6604 20.8021C32.5116 20.9493 32.3351 21.0655 32.141 21.144C31.947 21.2225 31.7394 21.2617 31.5301 21.2594H24.5801C24.1614 21.2568 23.7607 21.0891 23.4649 20.7928C23.1691 20.4966 23.002 20.0956 23.0001 19.6769V8.9669C23.002 8.5478 23.1694 8.14643 23.4657 7.85008C23.7621 7.55373 24.1635 7.38637 24.5826 7.3844H31.5276C32.4026 7.3894 33.1051 8.0969 33.1051 8.9669L33.1301 19.6769Z" fill="#083040"/>
</g>
<defs>
<clipPath id="clip0_715_115">
<rect width="40" height="40" fill="white" transform="translate(0.5 0.00939941)"/>
</clipPath>
</defs>
</svg>
