<svg width="37" height="34" viewBox="0 0 37 34" fill="none" xmlns="http://www.w3.org/2000/svg">
<path d="M18.4409 0.0126953C8.55547 0.0126953 0.5 7.64419 0.5 17.0093C0.5 26.3745 8.55547 34.006 18.4409 34.006C28.3264 34.006 36.3818 26.3745 36.3818 17.0093C36.3818 7.64419 28.3264 0.0126953 18.4409 0.0126953ZM2.31203 17.0093C2.31203 14.7998 2.81438 12.6922 3.71142 10.7886L11.4081 30.7596C6.0258 28.2781 2.31203 23.0602 2.31203 17.0093ZM18.4409 32.2893C16.8621 32.2893 15.3371 32.0684 13.8839 31.6605L18.728 18.3351L23.6797 31.2016C23.7155 31.2695 23.7514 31.3545 23.7873 31.4055C22.1188 31.9834 20.3247 32.2893 18.4409 32.2893ZM20.6656 9.83676C21.6344 9.78577 22.5135 9.68379 22.5135 9.68379C23.3747 9.58181 23.285 8.37505 22.4059 8.42604C22.4059 8.42604 19.7865 8.613 18.1 8.613C16.5212 8.613 13.848 8.42604 13.848 8.42604C12.9869 8.39205 12.8792 9.6498 13.7583 9.70079C13.7583 9.70079 14.5836 9.80277 15.4448 9.85376L17.9565 16.3805L14.4222 26.4085L8.55547 9.83676C9.52428 9.80277 10.4034 9.70079 10.4034 9.70079C11.2646 9.59881 11.1748 8.39205 10.2957 8.44304C10.2957 8.44304 7.67637 8.63 5.98992 8.63C5.68493 8.63 5.32611 8.63 4.94935 8.613C7.85578 4.46582 12.8075 1.72936 18.4409 1.72936C22.6391 1.72936 26.4605 3.24206 29.3311 5.74057C29.2593 5.74057 29.1875 5.72357 29.1158 5.72357C27.537 5.72357 26.4067 7.03231 26.4067 8.44304C26.4067 9.70079 27.1781 10.7716 27.9855 12.0293C28.5955 13.0491 29.3131 14.3579 29.3131 16.2445C29.3131 17.5532 28.7749 19.0659 28.0931 21.1905L26.4784 26.2895L20.6656 9.83676ZM32.5963 9.68379C34.6114 13.1777 35.1072 17.2789 33.9779 21.1139C32.8485 24.9489 30.1835 28.2147 26.5502 30.2158L31.484 16.7204C32.399 14.5448 32.7039 12.7942 32.7039 11.2475C32.7039 10.6866 32.6681 10.1597 32.5963 9.68379Z" fill="#083040"/>
</svg>
