<svg width="91" height="90" viewBox="0 0 91 90" fill="none" xmlns="http://www.w3.org/2000/svg">
<path d="M45.5 0.952637C20.4295 0.952637 0 20.8999 0 45.3787C0 69.8574 20.4295 89.8047 45.5 89.8047C70.5705 89.8047 91 69.8574 91 45.3787C91 20.8999 70.5705 0.952637 45.5 0.952637ZM4.5955 45.3787C4.5955 39.6033 5.8695 34.0945 8.1445 29.1188L27.664 81.3194C14.014 74.8332 4.5955 61.1944 4.5955 45.3787ZM45.5 85.3177C41.496 85.3177 37.6285 84.7402 33.943 83.6739L46.228 48.8439L58.786 82.4744C58.877 82.6521 58.968 82.8743 59.059 83.0075C54.8275 84.518 50.2775 85.3177 45.5 85.3177ZM51.142 26.6309C53.599 26.4976 55.8285 26.2311 55.8285 26.2311C58.0125 25.9645 57.785 22.8103 55.5555 22.9435C55.5555 22.9435 48.9125 23.4322 44.6355 23.4322C40.6315 23.4322 33.852 22.9435 33.852 22.9435C31.668 22.8547 31.395 26.1422 33.6245 26.2755C33.6245 26.2755 35.7175 26.542 37.9015 26.6753L44.2715 43.7349L35.308 69.9463L20.4295 26.6309C22.8865 26.542 25.116 26.2755 25.116 26.2755C27.3 26.0089 27.0725 22.8547 24.843 22.988C24.843 22.988 18.2 23.4766 13.923 23.4766C13.1495 23.4766 12.2395 23.4766 11.284 23.4322C18.655 12.5923 31.213 5.43967 45.5 5.43967C56.147 5.43967 65.8385 9.39359 73.1185 15.9242C72.9365 15.9242 72.7545 15.8798 72.5725 15.8798C68.5685 15.8798 65.702 19.3006 65.702 22.988C65.702 26.2755 67.6585 29.0743 69.706 32.3619C71.253 35.0274 73.073 38.4482 73.073 43.3795C73.073 46.8003 71.708 50.7542 69.979 56.3075L65.884 69.6353L51.142 26.6309ZM81.3995 26.2311C86.5101 35.3634 87.7673 46.0831 84.9033 56.1071C82.0392 66.1311 75.2803 74.6673 66.066 79.8977L78.5785 44.6234C80.899 38.9369 81.6725 34.361 81.6725 30.3183C81.6725 28.8522 81.5815 27.475 81.3995 26.2311Z" fill="#16BDCA"/>
</svg>
